<?xml version="1.0" encoding="utf-8"?>
<!-- Generator: Adobe Illustrator 25.2.1, SVG Export Plug-In . SVG Version: 6.00 Build 0)  -->
<svg version="1.1" id="Layer_1" xmlns="http://www.w3.org/2000/svg" xmlns:xlink="http://www.w3.org/1999/xlink" x="0px" y="0px"
	 viewBox="0 0 38.3 42" style="enable-background:new 0 0 38.3 42;" xml:space="preserve">
<style type="text/css">
	.st0{fill:#F69F25;}
</style>
<g>
	<path class="st0" d="M38.3,22.9c0,0.5-0.2,0.9-0.5,1.2c-1.5,1.4-2.9,2.9-4.4,4.3c-2.5,2.4-4.9,4.9-7.4,7.3
		c-1.9,1.9-3.8,3.8-5.8,5.7c-0.8,0.7-1.6,0.7-2.3,0c-1.9-1.8-3.7-3.7-5.6-5.6c-3.1-3.1-6.2-6.2-9.3-9.2c-0.9-0.9-1.7-1.7-2.6-2.6
		c-0.7-0.7-0.7-1.6,0-2.3c0.7-0.7,1.5-1.5,2.2-2.2c0.6-0.6,1.4-0.7,2-0.1c1,0.9,1.9,1.9,2.9,2.8c3.3,3.3,6.7,6.6,10,10
		c0.4,0.4,0.8,0.8,1.2,1.2c0.2,0.2,0.3,0.2,0.5,0c1.2-1.2,2.5-2.4,3.7-3.7c3.3-3.3,6.6-6.6,10-9.9c0.1-0.1,0.1-0.1,0.2-0.2
		c0.8-0.8,1.6-0.8,2.3,0c0.7,0.7,1.4,1.5,2.2,2.2C38.1,22.2,38.3,22.6,38.3,22.9z"/>
	<path class="st0" d="M3.8,0c0.4,0,0.7,0.1,1,0.4C5.4,1,6,1.5,6.5,2.1c2.3,2.3,4.6,4.6,6.9,6.8c1.8,1.8,3.6,3.6,5.5,5.4
		c0.3,0.3,0.4,0.2,0.6,0c1.2-1.2,2.5-2.5,3.7-3.7c2.2-2.2,4.4-4.3,6.5-6.5c1.2-1.2,2.5-2.4,3.7-3.7c0.6-0.6,1.4-0.7,2-0.1
		c0.9,0.8,1.7,1.6,2.5,2.5c0.5,0.6,0.5,1.4-0.1,2c-1.5,1.5-3,3-4.6,4.5c-2.9,2.9-5.8,5.8-8.7,8.7c-1.4,1.4-2.8,2.8-4.3,4.2
		c-0.7,0.7-1.5,0.7-2.2,0c-0.5-0.5-1-1-1.4-1.4c-3.5-3.5-7-7-10.5-10.4C4.2,8.6,2.4,6.8,0.6,5c-0.7-0.7-0.8-1.5-0.1-2.2
		c0.8-0.8,1.6-1.6,2.4-2.4C3.2,0.1,3.5,0,3.8,0z"/>
</g>
</svg>
