<?xml version="1.0" encoding="utf-8"?>
<!-- Generator: Adobe Illustrator 24.3.0, SVG Export Plug-In . SVG Version: 6.00 Build 0)  -->
<svg version="1.1" id="Layer_1" xmlns="http://www.w3.org/2000/svg" xmlns:xlink="http://www.w3.org/1999/xlink" x="0px" y="0px"
	 viewBox="0 0 36.9 35.7" style="enable-background:new 0 0 36.9 35.7;" xml:space="preserve">
<style type="text/css">
	.st0{fill:#D6791D;}
	.st1{fill:#FAB545;}
	.st2{fill:#F59F2C;}
	.st3{opacity:0.86;fill:#0F1223;enable-background:new    ;}
	.st4{fill:#101325;}
	.st5{fill:#0E1121;}
</style>
<g id="Group_1203" transform="translate(547 4261)">
	<g id="Group_138" transform="translate(0 0)">
		<g id="Group_136" transform="translate(17.756 0) rotate(14)">
			<path id="Path_612" class="st0" d="M-1547.9-4005.5l-12.8,18.5l-1.8,14.8l18.9,2.4l3.2-26.2L-1547.9-4005.5z"/>
		</g>
		<path id="Path_614" class="st1" d="M-514.7-4260.8h-13.4L-547-4242l6.7,6.7l6.7,6.7l18.8-18.8L-514.7-4260.8L-514.7-4260.8z"/>
		<path id="Path_615" class="st2" d="M-514.7-4247.4v-13.5l-25.6,25.6l6.7,6.7L-514.7-4247.4z"/>
		<path id="Path_616" class="st3" d="M-521.8-4251.8l-1-1l-0.9-0.9l-2.1,2.1c-2-1-4.4-0.1-5.4,1.9c-0.8,1.5-0.4,3.4,0.8,4.6
			c0.5,0.5,0.6,1.4,0,1.9c-0.5,0.5-1.4,0.6-1.9,0s-0.6-1.4,0-1.9c0,0,0,0,0,0l-1.9-1.9c-1.2,1.2-1.5,3.1-0.8,4.6l-2.1,2.1l0.9,0.9
			l1,1l2.1-2.1c1.5,0.8,3.4,0.5,4.6-0.8c1.6-1.6,1.6-4.2,0-5.8c0,0,0,0,0,0c-0.5-0.5-0.5-1.4,0-1.9c0.5-0.5,1.4-0.5,1.9,0
			s0.5,1.4,0,1.9l1.9,1.9c1.2-1.2,1.5-3.1,0.8-4.6L-521.8-4251.8z"/>
		<g id="Group_137" transform="translate(10.769 11.76)">
			<path id="Path_617" class="st4" d="M-537.3-4258.7l1.9,1.9c1.2-1.2,1.5-3.1,0.8-4.6l2.1-2.1l-1-1l-3.8,3.9
				C-536.8-4260.2-536.8-4259.3-537.3-4258.7C-537.3-4258.8-537.3-4258.7-537.3-4258.7L-537.3-4258.7z"/>
			<path id="Path_618" class="st5" d="M-543.9-4252.2c1.5,0.8,3.4,0.5,4.6-0.8c1.6-1.6,1.6-4.2,0-5.8c0,0,0,0,0,0l-1.9,1.9
				c0.5,0.5,0.6,1.4,0,1.9c-0.5,0.5-1.4,0.6-1.9,0c0,0,0,0,0,0l-3.8,3.9l1,1L-543.9-4252.2z"/>
		</g>
	</g>
</g>
</svg>
