<?xml version="1.0" encoding="utf-8"?>
<!-- Generator: Adobe Illustrator 24.3.0, SVG Export Plug-In . SVG Version: 6.00 Build 0)  -->
<svg version="1.1" id="Layer_1" xmlns="http://www.w3.org/2000/svg" xmlns:xlink="http://www.w3.org/1999/xlink" x="0px" y="0px"
	 viewBox="0 0 1085.04 736.6" style="enable-background:new 0 0 1085.04 736.6;" xml:space="preserve">
<style type="text/css">
	.st0{fill:#F9B233;}
	.st1{fill:#FFFFFF;}
	.st2{fill:#081118;stroke:#081118;stroke-width:30.6614;stroke-miterlimit:10;}
</style>
<g>
	<g>
		<path class="st0" d="M231.53,428.89c-0.03,0.03-0.05,0.06-0.08,0.09c-0.97,1.08-3.51,0.65-4.5-0.23
			c-0.66-0.59-1.21-1.47-1.79-2.48c-2.51-4.3-4.8-8.53-5.25-12.94c-0.17-1.69,0.81-3.69,2.64-3.91c0.61-0.08,1.24,0.03,1.83,0.21
			c0.42,0.13,0.85,0.29,1.17,0.59c0.63,0.59,0.97,1.61,1.36,2.37c0.53,1.05,1.05,2.11,1.55,3.18c0.99,2.1,1.94,4.21,2.86,6.34
			c0,0,0.75,1.74,0.76,1.74C232.75,425.41,232.66,427.54,231.53,428.89z"/>
	</g>
	<path class="st0" d="M609.75,164.28c-22.85,5.32-40.86,18.29-54.44,37.44c-1.11,1.53-2.57,3.61-4.13,3.88
		c-11.28,1.92-22.63,3.43-34.48,5.17c-0.25-8.15,1.11-15.55,3.84-22.42c1.61-4.04,3.68-7.88,6.17-11.58
		c2.12-3.14,4.41-5.99,6.86-8.56c4.8-5.05,10.28-9.03,16.36-12.05c0.04-0.03,0.09-0.03,0.11-0.06c6.08-2.83,12.77-4.72,19.97-5.71
		c26.94-3.74,53.82-7.77,80.75-11.67c32.74-4.77,50.19-23.32,53.13-58.19l-8.46-6.97l-0.34,7.12c0.04,25.84-16.37,45.62-41.97,49.48
		c-28.21,4.27-56.5,8.23-84.76,12.34l-1.33,0.2c-7.52,1.09-14.55,3.21-20.97,6.19c-21.67,10.61-35.96,31.47-37.72,57.34
		c-0.03,0.41-0.07,0.79-0.1,1.15c-0.53,4.13-2.3,5.26-6.47,5.71c-8.61,0.91-17.11,2.69-25.73,3.46c-2.98,0.26-6.81-0.59-9.16-2.35
		c-29.01-21.77-60.71-26.76-93.91-12.66c-33.2,14.12-51.87,40.37-55.66,76.46c-6.21,59.13,47.24,108.71,106.48,98.89
		c24.79-4.13,44.66-16.49,59.54-36.67c2.5-3.39,5.19-4.92,9.29-5.48c24.53-3.4,49.03-7.14,73.57-10.45
		c2.76-0.36,6.36,0.63,8.63,2.26c31.09,22.3,64.31,26.3,98.37,8.97c33.58-17.12,50.94-45.85,50.03-83.67
		C721.77,192.04,667.81,150.73,609.75,164.28z M418.8,352.45c-37.02,5.39-71.3-20.28-76.37-57.21c-5.1-37,20.51-70.44,57.96-75.73
		c36.31-5.11,69.75,20.45,74.98,57.32C480.55,313.41,455.35,347.11,418.8,352.45z M549.17,280.31l-52.26,7.57
		c-0.07,0.03-0.16,0.04-0.23,0.05c-1.22,0.12-2.41-0.22-3.41-0.96c-1.05-0.8-1.72-1.94-1.92-3.23l-1.72-11.9
		c-0.4-2.69,1.47-5.19,4.16-5.58l52.26-7.57c1.28-0.19,2.59,0.13,3.64,0.91c1.05,0.8,1.72,1.94,1.92,3.25l1.72,11.87
		C553.73,277.42,551.86,279.92,549.17,280.31z M641.14,320.17c-36.79,5.29-70.85-20.04-76.2-56.71
		c-5.36-36.76,19.99-70.68,56.79-76.07c36.92-5.43,70.6,19.66,76.03,56.63C703.16,280.95,677.95,314.85,641.14,320.17z
		 M548.29,261.52c-0.51-0.4-1.14-0.58-1.78-0.52c-0.05,0-0.09,0.03-0.12,0.03l-52.26,7.57c-1.4,0.2-2.37,1.5-2.16,2.91l1.72,11.9
		c0.2,1.38,1.53,2.37,2.88,2.17l52.25-7.59c1.4-0.2,2.37-1.5,2.16-2.91l-1.72-11.87C549.19,262.52,548.82,261.92,548.29,261.52z
		 M497.11,280.43c-0.34-2.34-0.63-4.35-0.98-6.78c7.64-1.11,15.05-2.19,23.11-3.36c0.41,2.02,0.81,4.07,1.35,6.74
		C512.32,278.22,504.91,279.31,497.11,280.43z M524.08,276.28c-0.33-2.24-0.61-4.16-0.95-6.5c7.78-1.14,15.35-2.24,23.32-3.38
		c0.41,2.12,0.78,4,1.28,6.44C539.88,274,532.3,275.09,524.08,276.28z"/>
	<g>
		<path class="st1" d="M630.01,274.7c1.16,8.57-4.49,15.99-13,17.04c-8.5,1.05-15.87-4.65-17.01-13.19
			c-1.13-8.41,4.69-16.01,13.11-17.12C621.52,260.32,628.85,266.07,630.01,274.7z"/>
		<path class="st1" d="M668.49,268.91c1.24,8.62-4.43,16.18-12.91,17.23c-8.51,1.05-16.19-4.87-17.21-13.25
			c-0.97-8.03,4.89-15.76,12.9-17C659.71,254.58,667.25,260.28,668.49,268.91z"/>
		<path class="st1" d="M624.72,238.24c1.24,8.72-4.26,15.94-13,17.07c-8.33,1.08-15.65-4.39-16.93-12.64
			c-1.32-8.48,4.32-16.17,12.79-17.45C616.11,223.94,623.49,229.55,624.72,238.24z"/>
		<path class="st1" d="M663.22,232.6c1.3,8.73-4.16,15.96-12.94,17.13c-8.28,1.1-15.84-4.46-17.09-12.57
			c-1.29-8.35,4.51-16.26,12.84-17.5C654.64,218.38,661.92,223.86,663.22,232.6z"/>
		<path class="st1" d="M446.29,277.51l1.94,13.39c0.36,2.45-1.34,4.72-3.79,5.08l-17.98,2.61c-2.45,0.36-4.15,2.63-3.79,5.08
			l2.61,17.98c0.36,2.45-1.34,4.72-3.79,5.08l-13.39,1.94c-2.45,0.36-4.72-1.34-5.08-3.79l-2.61-17.98
			c-0.36-2.45-2.63-4.15-5.08-3.79l-17.98,2.61c-2.45,0.36-4.72-1.34-5.08-3.79l-1.94-13.39c-0.36-2.45,1.34-4.72,3.79-5.08
			l17.98-2.61c2.45-0.36,4.15-2.63,3.79-5.08l-2.61-17.98c-0.36-2.45,1.34-4.72,3.79-5.08l13.39-1.94c2.45-0.36,4.72,1.34,5.08,3.79
			l2.61,17.98c0.36,2.45,2.63,4.15,5.08,3.79l17.98-2.61C443.66,273.37,445.93,275.06,446.29,277.51z"/>
	</g>
	<path class="st0" d="M782.3,164.23c-17.94-33.24-41.86-62.36-71.11-86.53c-29.25-24.17-62.34-42.19-98.37-53.55
		c-37.3-11.76-76.13-15.83-115.39-12.11c-39.26,3.73-76.63,15.04-111.04,33.61c-33.24,17.94-62.36,41.86-86.53,71.11
		c-24.17,29.25-42.19,62.34-53.55,98.37c-11.76,37.3-15.83,76.12-12.11,115.39s15.04,76.63,33.61,111.04
		c11.44,21.2,25.32,40.72,41.45,58.35l7.42-1.27c-16.98-18.02-31.49-38.12-43.33-60.07c-18.17-33.68-29.23-70.23-32.88-108.65
		s0.34-76.4,11.84-112.9c11.11-35.24,28.74-67.63,52.4-96.25c23.65-28.62,52.14-52.03,84.66-69.58
		c33.68-18.17,70.23-29.23,108.65-32.88c38.42-3.65,76.4,0.34,112.89,11.84c35.25,11.12,67.64,28.74,96.25,52.4
		c28.62,23.65,52.03,52.14,69.58,84.66c18.17,33.68,29.24,70.23,32.89,108.65c3.65,38.42-0.34,76.4-11.85,112.9
		c-3.18,10.07-6.88,19.92-11.12,29.5l7.42-1.27c3.65-8.59,6.88-17.37,9.71-26.33c11.76-37.3,15.84-76.12,12.11-115.39
		S800.87,198.65,782.3,164.23z"/>
	<g>
		<path class="st2" d="M405.07,609.44c8.23-43.86,16.47-87.79,24.8-132.17c-7.68,0.73-14.45,1.37-21.7,2.06
			c-3.44,18.24-6.83,36.1-10.19,53.97c-4.65,24.7-9.39,49.39-13.8,74.13c-0.81,4.54-2.72,6.61-7.18,7
			c-12.3,1.07-24.6,2.3-37.78,3.56c8.19-43.66,16.46-87.73,24.94-132.94c-6.73,0.98-12.86,1.59-18.8,2.99
			c-1.25,0.29-2.25,3.43-2.63,5.4c-6.87,36.04-13.62,72.1-20.41,108.16c-1.01,5.38-1.8,10.82-3.27,16.07
			c-0.49,1.76-2.68,4.12-4.31,4.32c-12.86,1.54-25.77,2.63-39.26,3.91c0.13-1.15,0.22-3.06,0.56-4.92
			c8.8-48.67,17.57-97.34,26.57-145.98c0.58-3.11,2.94-5.92,4.62-8.78c0.49-0.84,1.47-1.39,2.21-2.07
			c6.86-6.3,12.74-15.52,20.8-18.23c12.65-4.25,26.77-4.24,40.3-5.67c1.72-0.18,4.04,1.46,5.45,2.88
			c4.81,4.87,9.33,10.02,14.23,15.37c5.79-5.46,11.54-10.07,16.27-15.56c5.83-6.77,12.88-9.87,21.58-10.59
			c9.31-0.77,18.57-2.17,27.85-3.29c0.4-0.05,0.81-0.1,1.22-0.1c5.48-0.01,20.14,17.57,19.15,23.03
			c-8.95,49.47-17.94,98.92-26.83,148.4c-0.62,3.46-1.86,5.19-5.71,5.48C431.04,606.81,418.35,608.17,405.07,609.44z"/>
		<path class="st2" d="M1037.54,442.38c0.51-0.52,12.91,14.67,13.85,16.55c3.77,7.52,1.17,14.79-0.23,22.57
			c-2.9,16.09-8.1,30.87-21.28,41.41c-6.54,5.23-12.37,9.22-21.11,10.09c-22.63,2.25-45.15,5.66-67.71,8.59
			c-2.17,0.28-4.36,0.42-7.39,0.71c1.84-10.04,3.53-19.36,5.27-28.68c8.93-48.04,17.95-96.06,26.71-144.13
			c0.91-4.98,2.69-6.87,7.95-7.47c25.03-2.87,50-6.23,74.96-9.62c3.79-0.51,6.07,0.69,9.04,3.04c12.22,9.68,13.78,20.87,10.85,36.06
			c-3.29,17.07-8.1,31.77-22.43,42.39C1042.96,436.17,1040.56,439.31,1037.54,442.38z M998.94,423.91
			c6.38-0.61,11.84-0.93,17.22-1.76c1.44-0.22,3.44-1.77,3.8-3.09c1.65-6,2.8-12.13,4.17-18.4c-6.64,0.63-12.68,1.04-18.66,1.9
			c-1.34,0.19-3.28,1.81-3.54,3.06C1000.7,411.52,999.94,417.51,998.94,423.91z M1010.85,467.72c-6.35,0.6-11.79,0.98-17.19,1.74
			c-1.26,0.18-3.07,1.46-3.37,2.57c-1.66,6.16-2.93,12.43-4.33,18.62c6.88-0.65,13.12-1.11,19.3-1.96c1.08-0.15,2.55-1.88,2.79-3.08
			C1009.15,479.87,1009.89,474.07,1010.85,467.72z"/>
		<path class="st2" d="M208.35,634.62c2.57-14.17,5.17-28.49,7.84-43.2c-6.87,0.65-13.27,0.98-19.52,2.08
			c-1.32,0.23-2.7,3.19-3.08,5.09c-2.37,11.93-4.37,23.93-6.76,35.85c-0.35,1.76-2.03,4.49-3.35,4.64
			c-13.48,1.6-27.02,2.76-40.79,4.07c3.42-19.01,6.97-38.73,10.52-58.44c5.53-30.72,10.97-61.45,16.74-92.12
			c0.61-3.26,2.77-6.58,5.06-9.09c3.81-4.19,8.71-7.4,12.43-11.65c6.72-7.66,15.04-10.8,24.98-11.74
			c14.75-1.39,29.44-3.52,44.12-5.6c4.42-0.62,7.15,0.88,10.65,3.67c11.83,9.41,12.86,20.25,9.92,34.57
			c-8.95,43.46-16.32,87.24-24.03,130.94c-0.95,5.39-2.97,7.33-8.46,7.63C232.72,631.98,220.86,633.43,208.35,634.62z
			 M224.81,547.17c2.33-14.98,4.6-29.61,6.87-44.26c-6,0.57-11.47,0.9-16.86,1.72c-1.45,0.22-3.62,1.72-3.87,2.95
			c-2.76,13.79-5.22,27.63-7.78,41.64C210.74,548.51,217.54,547.87,224.81,547.17z"/>
		<path class="st2" d="M739.6,393.85c-3.72,21.15-7.5,42.67-11.4,64.84c6.44-0.61,12.44-0.89,18.3-1.97c1.27-0.23,2.5-3.26,2.9-5.18
			c3.87-18.66,7.55-37.35,11.3-56.03c0.39-1.96,0.87-3.9,1.46-6.55c14.21-1.35,28.33-2.69,43.08-4.09
			c-2.36,12.97-4.71,26.22-7.18,39.45c-8.3,44.44-16.71,88.87-24.87,133.34c-0.78,4.25-1.98,6.25-6.64,6.57
			c-12.53,0.85-25.03,2.26-38.1,3.5c3.7-21.14,7.52-42.94,11.53-65.83c-6.7,1.01-12.5,1.6-18.12,2.95c-1.4,0.34-2.82,3.03-3.19,4.85
			c-3.81,18.67-7.58,37.35-10.95,56.1c-0.77,4.28-2.28,6.49-6.65,6.88c-12.5,1.1-24.98,2.34-38.2,3.6
			c1.06-5.93,2.15-12.41,3.37-18.86c9.64-51.19,19.38-102.37,28.81-153.6c0.89-4.84,2.81-6.22,7.38-6.54
			C714.56,396.43,726.65,395.08,739.6,393.85z"/>
		<path class="st2" d="M613.71,409.49c-2.59,14.17-4.93,28.13-7.94,41.95c-0.35,1.6-4.24,3.13-6.65,3.46
			c-16.7,2.3-33.43,4.52-50.2,6.23c-5.65,0.57-8.74,2.23-9.3,8.28c-0.44,4.76-1.95,9.42-3.1,14.62c22.12-2.85,43.59-5.62,65.7-8.47
			c-2.88,15.42-5.62,30.12-8.45,45.28c-21.88,2.89-43.59,5.76-65.76,8.69c-1.12,6.8-2.23,13.51-3.51,21.29
			c21.48-2.68,42.46-5.29,64.3-8.01c-2.85,15.45-5.55,30.11-8.33,45.21c-17.77,2.29-35.47,4.59-53.18,6.85
			c-9.67,1.24-19.35,2.43-29.03,3.65c-1.01,0.13-2.02,0.34-3.03,0.33c-4.46-0.07-19.44-17.93-18.63-22.33
			c7.91-42.87,15.85-85.73,23.84-128.58c1.06-5.67,24.52-27.68,30.13-28.41c20.95-2.73,41.9-5.45,62.86-8.06
			C599.85,410.64,606.29,410.19,613.71,409.49z"/>
		<path class="st2" d="M938.07,368.1c-1.73,9.45-3.48,19.39-5.37,29.31c-7.78,40.82-15.55,81.64-23.51,122.42
			c-0.54,2.75-2.08,5.75-4.07,7.71c-7.52,7.41-14.35,16.66-23.46,20.98c-8.89,4.22-20.24,3.26-30.52,4.56
			c-9.88,1.25-19.75,2.56-29.64,3.67c-6.05,0.68-21.78-16.54-20.69-22.57c8.92-49.27,17.87-98.54,26.84-147.8
			c0.49-2.7,0.46-5.69,4.51-6.03c13.13-1.12,26.24-2.45,40.14-3.77c-8.09,43.52-16.3,87.75-24.54,132.07
			c6.65-0.63,12.75-0.84,18.67-2.01c1.63-0.32,3.51-3.35,3.9-5.39c6.9-36.04,13.59-72.12,20.33-108.2c1.04-5.58,2-11.18,3.27-16.71
			c0.36-1.55,1.55-4.01,2.58-4.13C910.18,370.66,923.87,369.44,938.07,368.1z"/>
		<path class="st2" d="M63.39,610.13c2.28-0.22,3.68-0.27,5.07-0.49c5.12-0.82,12.91-0.01,14.76-2.93
			c3.29-5.19,2.97-12.66,4.27-19.81c-3.48,0.33-6.01,0.57-10.05,0.96c1.38-7.62,2.59-14.63,4.02-21.59c0.12-0.6,1.62-1.2,2.54-1.32
			c16.9-2.15,33.81-4.22,50.72-6.3c0.16-0.02,0.35,0.16,1.13,0.55c-1.9,11.34-3.8,22.88-5.76,34.41c-1.09,6.4-2.9,12.74-3.26,19.17
			c-0.54,9.68-4.78,16.86-12.38,22.43c-0.65,0.48-1.32,1-1.8,1.64c-8.44,11.15-19.9,15.35-33.61,16.2
			c-13.96,0.86-27.83,3.29-41.74,5.03c-1.01,0.13-2.02,0.35-3.03,0.33c-4.52-0.08-19.71-17.9-18.9-22.34
			c4.38-23.98,8.76-47.96,13.17-71.94c2.17-11.82,4.37-23.64,6.55-35.46c0.48-2.58,1.23-5.25,1.47-7.83
			c0.23-2.54,0.3-4.93,0.98-7.42c1.34-4.91,3.86-9.44,6.85-13.52c8.38-11.41,20.57-20.49,34.77-22.57c8.86-1.3,17.77-2.15,26.64-3.3
			c1.21-0.16,2.43-0.23,3.64-0.4c21.65-2.89,21.7-2.94,35.83,13.52c1.35,1.57,2.22,4.41,1.88,6.41
			c-2.11,12.59-4.49,25.14-7.16,37.63c-0.38,1.79-2.63,4.34-4.25,4.54c-13.08,1.58-26.21,2.68-39.52,3.94
			c1.21-5.85,2.58-12.51,4.05-19.69c-7.36,0.7-14.12,1.34-21.57,2.05C73.62,551.23,68.57,580.3,63.39,610.13z"/>
	</g>
	<g>
		<path class="st0" d="M258.38,118.54c-0.35,1.06-1.09,2.14-1.86,3.29c-0.26,0.38-0.51,0.75-0.75,1.13
			c-21.51,33.31-36.44,68.67-44.38,105.09c-7.92,36.31-9.11,74.64-3.53,113.93c1.7,11.98,4.77,23.91,7.75,35.44
			c0.57,2.23,1.15,4.45,1.71,6.68c1.38,5.42-0.09,6.29-2.15,6.87c-1.76,0.49-3.45,0.51-4.91-4.58
			c-11.87-41.38-15.92-82.57-12.04-122.43c3.88-39.84,15.78-79.47,35.4-117.79c4.09-7.99,8.97-15.79,13.69-23.33
			c1.77-2.83,3.29-6.1,5.96-8.2c0.24-0.19,0.49-0.37,0.77-0.46c1.26-0.44,3.17,0.57,3.93,1.56
			C258.58,116.53,258.72,117.5,258.38,118.54z"/>
	</g>
	<g>
		<path class="st0" d="M805.58,154.66c-0.57,0.83-1.06,1.33-1.45,1.49c-0.7,0.3-2.68-0.01-4.17-0.86c-0.46-0.26-1.05-1.49-1.48-2.38
			c-0.22-0.46-0.45-0.93-0.7-1.39c-9.24-16.85-19.71-32.7-31.1-47.11c-11.47-14.49-24.21-27.94-37.86-39.97
			c-13.66-12.03-28.62-22.98-44.47-32.53c-7.68-4.64-15.74-9.04-23.94-13.09l-1.79-0.89c-4.24-2.1-8.62-4.27-13.04-6.22
			c-2.28-1.01-4.64-1.97-7.22-2.95c-0.64-0.24-1.29-0.43-1.92-0.62c-1.19-0.35-2.42-0.71-3.09-1.3c-0.36-0.33-0.68-0.88-0.96-1.68
			c-0.65-1.86-0.2-4.13,1.93-4.88c0.41-0.15,0.77-0.23,1.09-0.26C635.5,0,635.6,0,635.7,0c1.7,0.04,3.61,0.96,5.64,1.93
			c0.79,0.38,1.61,0.77,2.43,1.12c34.9,14.7,66.05,34.26,92.57,58.14c26.57,23.92,49.27,52.85,67.45,85.99
			c0.71,1.3,1.45,2.75,2.23,4.43c0.02,0.03,0.03,0.07,0.04,0.1C806.38,152.67,806.21,153.78,805.58,154.66z"/>
	</g>
	<g>
		<path class="st1" d="M165.15,719.1l-38.67,4.71l0.54-7.15l38.67-4.7L165.15,719.1z"/>
		<path class="st1" d="M212.68,687.14l-0.29,9.54l6.91-0.84l-0.18,6.53l-6.91,0.84l-0.58,21.69c-0.08,1.7,0.21,2.83,0.88,3.4
			c0.67,0.57,1.59,0.78,2.75,0.64c0.45-0.06,0.91-0.15,1.37-0.29c0.46-0.14,0.9-0.31,1.31-0.5l0.74,6.35
			c-0.74,0.5-1.61,0.93-2.63,1.28c-1.02,0.35-2.07,0.6-3.17,0.73c-3.09,0.38-5.54-0.28-7.35-1.98c-1.81-1.7-2.66-4.55-2.54-8.57
			l0.58-21.69l-5.88,0.71l0.18-6.53l5.88-0.71l0.29-9.54L212.68,687.14z"/>
		<path class="st1" d="M238.35,698.37c1.33-1.95,2.92-3.51,4.78-4.7c1.86-1.19,3.91-1.92,6.17-2.2c3.94-0.48,7.06,0.46,9.35,2.82
			c2.29,2.36,3.36,6.25,3.23,11.66l-0.67,23.91l-8.66,1.05l0.66-23.98c0.09-3.19-0.42-5.38-1.54-6.57
			c-1.12-1.19-2.87-1.64-5.24-1.35c-1.8,0.22-3.4,0.76-4.79,1.63c-1.39,0.87-2.53,1.97-3.43,3.31l-0.8,28.8l-8.66,1.05l1.58-56.59
			l8.66-1.05L238.35,698.37z"/>
		<path class="st1" d="M290.17,727.1c-5.42,0.66-9.72-0.64-12.91-3.89c-3.19-3.25-4.7-7.72-4.52-13.4l0.04-1.45
			c0.16-5.97,1.87-10.97,5.12-14.98c3.25-4.01,7.4-6.31,12.47-6.9c4.96-0.6,8.78,0.57,11.45,3.52c2.67,2.95,3.94,7.11,3.8,12.48
			l-0.11,4.75l-24.12,2.93c0.1,3.39,0.91,5.97,2.43,7.75c1.52,1.78,3.87,2.48,7.05,2.09c2.26-0.27,4.29-0.82,6.09-1.63
			c1.81-0.81,3.44-1.83,4.9-3.07l2.65,5.43c-1.51,1.49-3.48,2.82-5.93,4.01C296.13,725.93,293.33,726.72,290.17,727.1z
			 M290.17,693.55c-2.14,0.26-3.93,1.31-5.37,3.15c-1.44,1.84-2.37,4.08-2.8,6.74l0.1,0.21l15-1.83l0.03-0.69
			c0.07-2.61-0.45-4.6-1.56-5.97C294.46,693.78,292.67,693.25,290.17,693.55z"/>
		<path class="st1" d="M362.32,717.57l-0.6-5.53c-1.25,2.22-2.82,3.99-4.7,5.31c-1.89,1.31-4.07,2.12-6.54,2.42
			c-3.99,0.49-7.15-0.52-9.48-3.02c-2.33-2.5-3.41-6.64-3.25-12.42l0.64-22.96l8.62-1.05l-0.63,23.04c-0.1,3.89,0.35,6.43,1.36,7.63
			c1.01,1.19,2.67,1.65,4.97,1.37c2.02-0.25,3.75-0.85,5.2-1.82c1.45-0.97,2.61-2.26,3.47-3.86l0.8-28.19l8.66-1.05l-1.08,39.25
			L362.32,717.57z"/>
		<path class="st1" d="M391.72,680.29c1.33-2.11,2.97-3.83,4.91-5.13c1.94-1.31,4.11-2.11,6.51-2.4c3.87-0.47,6.93,0.42,9.17,2.68
			c2.24,2.26,3.29,6.03,3.17,11.33l-0.68,24.41l-8.66,1.05l0.69-24.34c0.07-3.17-0.44-5.29-1.55-6.37
			c-1.11-1.08-2.86-1.48-5.26-1.19c-1.81,0.22-3.39,0.78-4.75,1.68c-1.36,0.9-2.5,2.07-3.41,3.51l-0.79,28.55l-8.66,1.05l1.08-39.25
			l7.91-0.96L391.72,680.29z"/>
		<path class="st1" d="M436.67,708.52l-8.66,1.05l1.08-39.25l8.66-1.05L436.67,708.52z M438.03,659.66l-8.66,1.05l0.22-7.73
			l8.66-1.05L438.03,659.66z"/>
		<path class="st1" d="M463.78,691.99l0.52,3.08l0.22,0.01l0.79-3.28l8.37-26.91l8.94-1.09l-14.76,40.92l-7.52,0.91l-12.67-37.58
			l8.94-1.09L463.78,691.99z"/>
		<path class="st1" d="M506.51,700.78c-5.42,0.66-9.72-0.64-12.91-3.89c-3.19-3.25-4.7-7.72-4.52-13.4l0.04-1.45
			c0.17-5.97,1.87-10.97,5.12-14.98s7.4-6.31,12.47-6.9c4.96-0.6,8.78,0.57,11.46,3.52c2.67,2.95,3.94,7.11,3.8,12.48l-0.11,4.75
			l-24.12,2.93c0.1,3.39,0.91,5.97,2.43,7.75c1.52,1.78,3.87,2.48,7.05,2.09c2.26-0.27,4.29-0.82,6.09-1.63
			c1.81-0.81,3.44-1.83,4.9-3.07l2.65,5.43c-1.51,1.49-3.48,2.82-5.93,4.01C512.47,699.61,509.67,700.4,506.51,700.78z
			 M506.52,667.23c-2.14,0.26-3.93,1.31-5.36,3.15c-1.44,1.84-2.37,4.08-2.8,6.74l0.1,0.21l15-1.83l0.03-0.69
			c0.07-2.61-0.45-4.6-1.56-5.97C510.81,667.46,509.01,666.93,506.52,667.23z"/>
		<path class="st1" d="M552.08,663.28l-3.69,0.3c-1.64,0.2-3.04,0.75-4.19,1.65c-1.16,0.9-2.08,2.08-2.77,3.54l-0.75,27.1
			l-8.66,1.05l1.08-39.25l7.91-0.96l0.41,5.48c1.02-2.1,2.31-3.79,3.86-5.08c1.56-1.29,3.34-2.05,5.36-2.3
			c0.5-0.06,0.98-0.08,1.46-0.05c0.47,0.03,0.89,0.08,1.27,0.15L552.08,663.28z"/>
		<path class="st1" d="M583.3,679.98c0.03-1.38-0.51-2.43-1.59-3.17c-1.09-0.73-3.21-1.26-6.36-1.58c-4.51-0.39-7.95-1.36-10.33-2.9
			c-2.38-1.54-3.54-3.86-3.48-6.95c0.04-3.4,1.45-6.41,4.22-9.01c2.77-2.6,6.4-4.18,10.89-4.72c4.44-0.54,8.09,0.22,10.94,2.28
			c2.86,2.06,4.2,4.78,4.03,8.15l-0.05,0.22l-8.34,1.01c0.01-1.67-0.58-2.99-1.77-3.98c-1.19-0.99-2.84-1.35-4.92-1.1
			c-1.99,0.24-3.58,0.92-4.74,2.04c-1.17,1.12-1.76,2.37-1.79,3.74c-0.02,1.38,0.47,2.39,1.47,3.04c1.01,0.65,3.1,1.09,6.29,1.33
			c4.72,0.39,8.26,1.38,10.61,2.96c2.35,1.58,3.5,3.94,3.45,7.08c-0.06,3.67-1.53,6.76-4.4,9.27c-2.88,2.51-6.68,4.05-11.41,4.62
			c-4.8,0.58-8.67-0.26-11.62-2.54c-2.95-2.28-4.33-5.08-4.13-8.41l0.05-0.22l8.09-0.98c0.06,2.26,0.84,3.81,2.34,4.67
			c1.5,0.85,3.34,1.15,5.53,0.88c2.14-0.26,3.84-0.92,5.11-1.98C582.64,682.68,583.28,681.43,583.3,679.98z"/>
		<path class="st1" d="M619.21,687.08c-5.41,0.66-9.72-0.64-12.91-3.89c-3.19-3.25-4.7-7.72-4.52-13.4l0.04-1.45
			c0.16-5.97,1.87-10.97,5.12-14.98c3.25-4.01,7.4-6.31,12.46-6.9c4.96-0.6,8.78,0.57,11.46,3.52c2.67,2.95,3.94,7.11,3.8,12.48
			l-0.11,4.75l-24.12,2.93c0.1,3.39,0.91,5.97,2.43,7.75c1.52,1.78,3.87,2.48,7.05,2.09c2.25-0.27,4.29-0.82,6.09-1.63
			c1.81-0.81,3.44-1.83,4.9-3.07l2.65,5.43c-1.51,1.49-3.48,2.82-5.93,4.01C625.17,685.9,622.37,686.69,619.21,687.08z
			 M619.22,653.52c-2.14,0.26-3.93,1.31-5.37,3.15c-1.44,1.84-2.37,4.08-2.8,6.74l0.1,0.21l15-1.82l0.03-0.69
			c0.07-2.61-0.45-4.6-1.56-5.97S621.71,653.22,619.22,653.52z"/>
		<path class="st1" d="M665.5,660.76c0.15-6.07,1.83-11.11,5.05-15.11c3.21-4.01,7.59-6.34,13.12-7.02c5.3-0.64,9.52,0.72,12.68,4.1
			c3.16,3.38,4.67,7.95,4.53,13.73l-0.02,0.76c-0.19,6.12-1.89,11.17-5.1,15.15c-3.2,3.98-7.58,6.31-13.14,6.99
			c-5.3,0.64-9.52-0.72-12.68-4.08c-3.16-3.36-4.64-7.95-4.46-13.76L665.5,660.76z M674.14,660.47c-0.12,3.97,0.52,7.03,1.91,9.19
			c1.4,2.16,3.65,3.04,6.76,2.67c2.9-0.35,5.16-1.84,6.79-4.48c1.63-2.63,2.51-5.82,2.63-9.58l0.02-0.76
			c0.11-3.89-0.56-6.93-1.99-9.1c-1.43-2.18-3.69-3.08-6.78-2.7c-2.9,0.35-5.16,1.86-6.77,4.51c-1.62,2.65-2.47,5.82-2.55,9.49
			L674.14,660.47z"/>
		<path class="st1" d="M714.32,674.75l0.9-32.72l-5.88,0.72l0.18-6.53l5.88-0.71l0.13-4.57c0.1-4.5,1.34-8.01,3.71-10.56
			c2.36-2.54,5.66-4.07,9.89-4.58c0.78-0.1,1.62-0.13,2.52-0.09c0.9,0.04,1.85,0.1,2.88,0.19l-1.07,6.93
			c-0.47-0.04-0.99-0.06-1.58-0.06c-0.59,0-1.22,0.04-1.88,0.12c-1.8,0.22-3.21,0.94-4.22,2.16c-1.01,1.22-1.54,2.83-1.58,4.84
			l-0.13,4.57l7.16-0.87l-0.18,6.53l-7.16,0.87l-0.9,32.72L714.32,674.75z"/>
		<path class="st1" d="M760.85,650.07c0.17-6.48,1.62-11.74,4.33-15.78c2.71-4.04,6.48-6.36,11.3-6.94
			c2.23-0.27,4.21,0.01,5.94,0.85c1.73,0.84,3.2,2.15,4.4,3.93l1-5.44l7.2-0.88l-1.08,39.25c-0.16,5.25-1.79,9.39-4.89,12.42
			c-3.1,3.03-7.5,4.89-13.2,5.58c-1.83,0.22-3.84,0.2-6.03-0.08s-4.14-0.76-5.83-1.44l1.56-7.1c1.44,0.57,3.08,0.96,4.9,1.16
			c1.82,0.2,3.68,0.18,5.58-0.05c3.01-0.37,5.29-1.34,6.82-2.91c1.53-1.57,2.35-3.75,2.44-6.53l0.09-4.03
			c-1.24,1.72-2.69,3.08-4.36,4.09c-1.67,1.01-3.58,1.65-5.72,1.91c-4.54,0.55-8.12-0.78-10.75-3.99
			c-2.63-3.21-3.87-7.63-3.71-13.27L760.85,650.07z M769.45,649.78c-0.12,3.75,0.48,6.59,1.79,8.51c1.32,1.93,3.48,2.71,6.47,2.34
			c1.78-0.22,3.33-0.81,4.63-1.77c1.3-0.97,2.39-2.25,3.25-3.85l0.49-17.05c-0.74-1.36-1.75-2.36-3.01-3.02
			c-1.26-0.65-2.79-0.87-4.6-0.65c-2.85,0.35-5.04,1.89-6.58,4.63c-1.53,2.74-2.35,6.11-2.44,10.1L769.45,649.78z"/>
		<path class="st1" d="M829.87,660.69c-0.28-0.91-0.51-1.82-0.68-2.76c-0.17-0.93-0.28-1.88-0.33-2.83
			c-1.23,1.98-2.83,3.71-4.81,5.19c-1.98,1.48-4.16,2.37-6.56,2.66c-3.87,0.47-6.89-0.22-9.06-2.08c-2.17-1.86-3.19-4.6-3.08-8.23
			c0.1-3.94,1.63-7.11,4.61-9.51c2.98-2.4,7.17-3.93,12.58-4.59l6.73-0.82l0.09-3.44c0.05-2.13-0.48-3.68-1.61-4.67
			c-1.13-0.98-2.83-1.34-5.08-1.06c-1.9,0.23-3.47,0.9-4.71,2.02c-1.24,1.12-1.86,2.42-1.87,3.92l-8.3,1.05l-0.1-0.21
			c-0.07-3.2,1.35-6.14,4.28-8.82c2.93-2.68,6.73-4.31,11.41-4.88c4.35-0.53,7.9,0.21,10.66,2.21c2.76,2,4.09,5.16,3.99,9.46
			l-0.52,17.45c-0.04,1.69,0.03,3.25,0.21,4.68c0.17,1.43,0.47,2.82,0.91,4.19L829.87,660.69z M819.46,655.66
			c2.09-0.25,4.04-1.06,5.85-2.41c1.81-1.35,3.02-2.78,3.64-4.28l0.17-5.73l-6.88,0.84c-2.42,0.29-4.39,1.17-5.9,2.63
			c-1.51,1.46-2.29,3.04-2.35,4.73c-0.05,1.55,0.39,2.7,1.32,3.44C816.25,655.63,817.63,655.89,819.46,655.66z"/>
		<path class="st1" d="M859.27,622.91c1.3-1.97,2.92-3.55,4.85-4.76c1.92-1.21,4.15-1.97,6.66-2.27c2.4-0.29,4.49,0.03,6.28,0.95
			c1.79,0.93,3.13,2.48,4.02,4.66c1.24-2.3,2.86-4.17,4.85-5.63s4.31-2.35,6.94-2.67c3.75-0.46,6.74,0.56,8.97,3.05
			c2.23,2.49,3.27,6.49,3.12,12l-0.66,23.4l-8.66,1.05l0.66-23.44c0.07-3.58-0.43-5.96-1.5-7.14c-1.07-1.18-2.75-1.64-5.03-1.36
			c-1.8,0.22-3.36,0.93-4.68,2.14c-1.31,1.21-2.29,2.72-2.94,4.53l0.01,1.55l-0.7,25.43l-8.66,1.05l0.66-23.44
			c0.09-3.43-0.42-5.78-1.52-7.03c-1.1-1.25-2.78-1.74-5.04-1.47c-1.71,0.21-3.19,0.76-4.45,1.64c-1.26,0.89-2.27,2.03-3.04,3.42
			l-0.79,28.59l-8.66,1.05l1.08-39.25l7.91-0.96L859.27,622.91z"/>
		<path class="st1" d="M933.42,648.85c-5.42,0.66-9.72-0.64-12.91-3.89c-3.19-3.25-4.7-7.72-4.52-13.4l0.04-1.45
			c0.17-5.97,1.87-10.97,5.12-14.98c3.25-4.01,7.4-6.31,12.47-6.9c4.96-0.6,8.78,0.57,11.46,3.52c2.67,2.95,3.94,7.11,3.79,12.48
			l-0.11,4.75l-24.12,2.93c0.1,3.39,0.91,5.97,2.43,7.75c1.52,1.78,3.87,2.48,7.05,2.09c2.26-0.27,4.29-0.82,6.09-1.63
			c1.81-0.81,3.44-1.83,4.9-3.07l2.65,5.43c-1.51,1.48-3.48,2.82-5.93,4.01S936.58,648.47,933.42,648.85z M933.42,615.3
			c-2.14,0.26-3.93,1.31-5.37,3.15c-1.44,1.84-2.37,4.08-2.8,6.74l0.1,0.2l15-1.82l0.03-0.69c0.07-2.61-0.45-4.6-1.56-5.97
			C937.72,615.53,935.92,615,933.42,615.3z"/>
		<path class="st1" d="M980.94,631.61c0.03-1.38-0.51-2.43-1.59-3.17c-1.09-0.73-3.21-1.26-6.36-1.58
			c-4.51-0.39-7.95-1.36-10.33-2.9c-2.38-1.54-3.54-3.86-3.48-6.95c0.04-3.4,1.45-6.41,4.22-9.01c2.77-2.6,6.4-4.18,10.89-4.72
			c4.44-0.54,8.09,0.22,10.94,2.28c2.86,2.06,4.2,4.78,4.03,8.15l-0.05,0.22l-8.34,1.01c0.01-1.67-0.58-2.99-1.77-3.98
			c-1.19-0.99-2.84-1.35-4.92-1.1c-1.99,0.24-3.58,0.92-4.74,2.04c-1.17,1.12-1.76,2.37-1.79,3.74c-0.02,1.38,0.47,2.39,1.47,3.04
			c1.01,0.65,3.1,1.09,6.29,1.33c4.72,0.39,8.26,1.38,10.61,2.96c2.35,1.58,3.5,3.94,3.45,7.08c-0.06,3.67-1.53,6.76-4.4,9.27
			c-2.88,2.51-6.68,4.05-11.41,4.62c-4.8,0.58-8.67-0.26-11.62-2.54c-2.95-2.28-4.33-5.08-4.13-8.41l0.05-0.22l8.09-0.98
			c0.06,2.26,0.84,3.81,2.34,4.67c1.5,0.85,3.34,1.15,5.53,0.88c2.14-0.26,3.84-0.92,5.11-1.98
			C980.28,634.31,980.92,633.06,980.94,631.61z"/>
	</g>
	<g>
		<g>
			<path class="st1" d="M405.07,609.44c8.23-43.86,16.47-87.79,24.8-132.17c-7.68,0.73-14.45,1.37-21.7,2.06
				c-3.44,18.24-6.83,36.1-10.19,53.97c-4.65,24.7-9.39,49.39-13.8,74.13c-0.81,4.54-2.72,6.61-7.18,7
				c-12.3,1.07-24.6,2.3-37.78,3.56c8.19-43.66,16.46-87.73,24.94-132.94c-6.73,0.98-12.86,1.59-18.8,2.99
				c-1.25,0.29-2.25,3.43-2.63,5.4c-6.87,36.04-13.62,72.1-20.41,108.16c-1.01,5.38-1.8,10.82-3.27,16.07
				c-0.49,1.76-2.68,4.12-4.31,4.32c-12.86,1.54-25.77,2.63-39.26,3.91c0.13-1.15,0.22-3.06,0.56-4.92
				c8.8-48.67,17.57-97.34,26.57-145.98c0.58-3.11,2.94-5.92,4.62-8.78c0.49-0.84,1.47-1.39,2.21-2.07
				c6.86-6.3,12.74-15.52,20.8-18.23c12.65-4.25,26.77-4.24,40.3-5.67c1.72-0.18,4.04,1.46,5.45,2.88
				c4.81,4.87,9.33,10.02,14.23,15.37c5.79-5.46,11.54-10.07,16.27-15.56c5.83-6.77,12.88-9.87,21.58-10.59
				c9.31-0.77,18.57-2.17,27.85-3.29c0.4-0.05,0.81-0.1,1.22-0.1c5.48-0.01,20.14,17.57,19.15,23.03
				c-8.95,49.47-17.94,98.92-26.83,148.4c-0.62,3.46-1.86,5.19-5.71,5.48C431.04,606.81,418.35,608.17,405.07,609.44z"/>
			<path class="st1" d="M1037.54,442.39c-0.32,0.34,6.82,6.52,7.48,7.14c4.39,4.11,7.4,8.47,8.23,14.57
				c0.73,5.34-0.07,10.76-0.96,16.08c-2.92,17.43-8.31,31.46-22.42,42.74c-6.54,5.23-12.37,9.22-21.11,10.09
				c-22.63,2.25-45.15,5.66-67.71,8.59c-2.17,0.28-4.36,0.42-7.39,0.71c1.84-10.04,3.53-19.36,5.27-28.68
				c8.93-48.04,17.95-96.06,26.71-144.13c0.91-4.98,2.69-6.87,7.95-7.47c25.03-2.87,50-6.23,74.96-9.62
				c3.79-0.51,6.07,0.69,9.04,3.04c12.22,9.68,13.78,20.87,10.85,36.06c-3.29,17.07-8.1,31.77-22.43,42.39
				C1042.96,436.17,1040.56,439.31,1037.54,442.39z M998.94,423.91c6.38-0.61,11.84-0.93,17.22-1.76c1.44-0.22,3.44-1.77,3.8-3.09
				c1.65-6,2.8-12.13,4.17-18.4c-6.64,0.63-12.68,1.04-18.66,1.9c-1.34,0.19-3.28,1.81-3.54,3.06
				C1000.7,411.52,999.94,417.51,998.94,423.91z M1010.85,467.72c-6.35,0.6-11.79,0.98-17.19,1.74c-1.26,0.18-3.07,1.46-3.37,2.57
				c-1.66,6.16-2.93,12.43-4.33,18.62c6.88-0.65,13.12-1.11,19.3-1.96c1.08-0.15,2.55-1.88,2.79-3.08
				C1009.15,479.87,1009.89,474.07,1010.85,467.72z"/>
			<path class="st1" d="M208.35,634.62c2.57-14.17,5.17-28.49,7.84-43.2c-6.87,0.65-13.27,0.98-19.52,2.08
				c-1.32,0.23-2.7,3.19-3.08,5.09c-2.37,11.93-4.37,23.93-6.76,35.85c-0.35,1.76-2.03,4.49-3.35,4.64
				c-13.48,1.6-27.02,2.76-40.79,4.07c3.42-19.01,6.97-38.73,10.52-58.44c5.53-30.72,10.97-61.45,16.74-92.12
				c0.61-3.26,2.77-6.58,5.06-9.09c3.81-4.19,8.71-7.4,12.43-11.65c6.72-7.66,15.04-10.8,24.98-11.74
				c14.75-1.39,29.44-3.52,44.12-5.6c4.42-0.62,7.15,0.88,10.65,3.67c11.83,9.41,12.86,20.25,9.92,34.57
				c-8.95,43.46-16.32,87.24-24.03,130.94c-0.95,5.39-2.97,7.33-8.46,7.63C232.72,631.98,220.86,633.43,208.35,634.62z
				 M224.81,547.17c2.33-14.98,4.6-29.61,6.87-44.26c-6,0.57-11.47,0.9-16.86,1.72c-1.45,0.22-3.62,1.72-3.87,2.95
				c-2.76,13.79-5.22,27.63-7.78,41.64C210.74,548.51,217.54,547.87,224.81,547.17z"/>
			<path class="st1" d="M739.6,393.85c-3.72,21.15-7.5,42.67-11.4,64.84c6.44-0.61,12.44-0.89,18.3-1.97
				c1.27-0.23,2.5-3.26,2.9-5.18c3.87-18.66,7.55-37.35,11.3-56.03c0.39-1.96,0.87-3.9,1.46-6.55c14.21-1.35,28.33-2.69,43.08-4.09
				c-2.36,12.97-4.71,26.22-7.18,39.45c-8.3,44.44-16.71,88.87-24.87,133.34c-0.78,4.25-1.98,6.25-6.64,6.57
				c-12.53,0.85-25.03,2.26-38.1,3.5c3.7-21.14,7.52-42.94,11.53-65.83c-6.7,1.01-12.5,1.6-18.12,2.95
				c-1.4,0.34-2.82,3.03-3.19,4.85c-3.81,18.67-7.58,37.35-10.95,56.1c-0.77,4.28-2.28,6.49-6.65,6.88
				c-12.5,1.1-24.98,2.34-38.2,3.6c1.06-5.93,2.15-12.41,3.37-18.86c9.64-51.19,19.38-102.37,28.81-153.6
				c0.89-4.84,2.81-6.22,7.38-6.54C714.56,396.43,726.65,395.08,739.6,393.85z"/>
			<path class="st1" d="M613.71,409.49c-2.59,14.17-4.93,28.13-7.94,41.95c-0.35,1.6-4.24,3.13-6.65,3.46
				c-16.7,2.3-33.43,4.52-50.2,6.23c-5.65,0.57-8.74,2.23-9.3,8.28c-0.44,4.76-1.95,9.42-3.1,14.62c22.12-2.85,43.59-5.62,65.7-8.47
				c-2.88,15.42-5.62,30.12-8.45,45.28c-21.88,2.89-43.59,5.76-65.76,8.69c-1.12,6.8-2.23,13.51-3.51,21.29
				c21.48-2.68,42.46-5.29,64.3-8.01c-2.85,15.45-5.55,30.11-8.33,45.21c-17.77,2.29-35.47,4.59-53.18,6.85
				c-9.67,1.24-19.35,2.43-29.03,3.65c-1.01,0.13-2.02,0.34-3.03,0.33c-4.46-0.07-19.44-17.93-18.63-22.33
				c7.91-42.87,15.85-85.73,23.84-128.58c1.06-5.67,24.52-27.68,30.13-28.41c20.95-2.73,41.9-5.45,62.86-8.06
				C599.85,410.64,606.29,410.19,613.71,409.49z"/>
			<path class="st1" d="M938.07,368.1c-1.73,9.45-3.48,19.39-5.37,29.31c-7.78,40.82-15.55,81.64-23.51,122.42
				c-0.54,2.75-2.08,5.75-4.07,7.71c-7.52,7.41-14.35,16.66-23.46,20.98c-8.89,4.22-20.24,3.26-30.52,4.56
				c-9.88,1.25-19.75,2.56-29.64,3.67c-6.05,0.68-21.78-16.54-20.69-22.57c8.92-49.27,17.87-98.54,26.84-147.8
				c0.49-2.7,0.46-5.69,4.51-6.03c13.13-1.12,26.24-2.45,40.14-3.77c-8.09,43.52-16.3,87.75-24.54,132.07
				c6.65-0.63,12.75-0.84,18.67-2.01c1.63-0.32,3.51-3.35,3.9-5.39c6.9-36.04,13.59-72.12,20.33-108.2c1.04-5.58,2-11.18,3.27-16.71
				c0.36-1.55,1.55-4.01,2.58-4.13C910.18,370.66,923.87,369.44,938.07,368.1z"/>
		</g>
		<path class="st1" d="M63.09,610.15c2.28-0.22,3.68-0.27,5.07-0.49c5.12-0.82,12.91-0.01,14.76-2.93
			c3.29-5.19,2.97-12.66,4.27-19.81c-3.48,0.33-6.01,0.57-10.05,0.96c1.38-7.62,2.59-14.63,4.02-21.59c0.12-0.6,1.62-1.2,2.54-1.32
			c16.9-2.15,33.81-4.22,50.72-6.3c0.16-0.02,0.35,0.16,1.13,0.55c-1.9,11.34-3.8,22.88-5.76,34.41c-1.09,6.4-2.9,12.74-3.26,19.17
			c-0.54,9.68-4.78,16.86-12.38,22.43c-0.65,0.48-1.32,1-1.8,1.64c-8.44,11.15-19.9,15.35-33.61,16.2
			c-13.96,0.86-27.83,3.29-41.74,5.03c-1.01,0.13-2.02,0.35-3.03,0.33c-4.52-0.08-19.71-17.9-18.9-22.34
			c4.37-23.97,8.75-47.93,13.16-71.89c3.06-16.61,6.26-33.15,9.15-49.79c0.48-2.78,0.97-5.58,1.93-8.24
			c0.97-2.67,2.87-4.38,4.82-6.39c3.26-3.95,7.25-7.48,10.82-11.15c3.3-3.4,6.75-6.74,11.2-8.61c3.68-1.55,7.87-1.94,11.79-2.53
			c9.16-1.38,18.39-2.25,27.57-3.43c1.21-0.16,2.43-0.23,3.64-0.4c21.65-2.89,21.7-2.94,35.83,13.52c1.35,1.57,2.22,4.41,1.88,6.41
			c-2.11,12.59-4.49,25.14-7.16,37.63c-0.38,1.79-2.63,4.34-4.25,4.54c-13.08,1.58-26.21,2.68-39.52,3.94
			c1.21-5.85,2.58-12.51,4.05-19.69c-7.36,0.7-14.12,1.34-21.57,2.05C73.33,551.25,68.28,580.33,63.09,610.15z"/>
	</g>
</g>
</svg>
