<?xml version="1.0" encoding="utf-8"?>
<!-- Generator: Adobe Illustrator 24.3.0, SVG Export Plug-In . SVG Version: 6.00 Build 0)  -->
<svg version="1.1" id="Layer_1" xmlns="http://www.w3.org/2000/svg" xmlns:xlink="http://www.w3.org/1999/xlink" x="0px" y="0px"
	 viewBox="0 0 50.04 25.2" style="enable-background:new 0 0 50.04 25.2;" xml:space="preserve">
<style type="text/css">
	.st0{fill:#FFFFFF;}
</style>
<path id="Path_336" class="st0" d="M37.53,10c1.84,0,3.33-1.49,3.33-3.33s-1.49-3.33-3.33-3.34c-1.84,0-3.33,1.49-3.33,3.33
	c0,0,0,0,0,0C34.2,8.51,35.69,10,37.53,10z M37.53,5c0.92,0,1.67,0.75,1.67,1.67s-0.75,1.67-1.67,1.67s-1.67-0.75-1.67-1.67l0,0
	C35.87,5.75,36.61,5,37.53,5C37.53,5,37.53,5,37.53,5L37.53,5z"/>
<path id="Path_337" class="st0" d="M37.53,15.01c-1.84,0-3.33,1.49-3.33,3.33s1.49,3.33,3.33,3.34c1.84,0,3.33-1.49,3.33-3.33
	c0,0,0,0,0,0C40.87,16.5,39.38,15.01,37.53,15.01z M37.53,20.01c-0.92,0-1.67-0.75-1.67-1.67s0.75-1.67,1.67-1.67
	s1.67,0.75,1.67,1.67l0,0C39.2,19.26,38.46,20.01,37.53,20.01C37.54,20.01,37.53,20.01,37.53,20.01L37.53,20.01z"/>
<path id="Path_338" class="st0" d="M31.7,9.17c-1.84,0-3.34,1.49-3.34,3.33c0,1.84,1.49,3.34,3.33,3.34c1.84,0,3.34-1.49,3.34-3.33
	c0,0,0,0,0,0C35.03,10.66,33.54,9.17,31.7,9.17z M31.7,14.17c-0.92,0-1.67-0.75-1.67-1.67s0.75-1.67,1.67-1.67
	c0.92,0,1.67,0.75,1.67,1.67C33.37,13.42,32.62,14.17,31.7,14.17C31.7,14.17,31.7,14.17,31.7,14.17L31.7,14.17z"/>
<path id="Path_339" class="st0" d="M40.04,12.51c0,1.84,1.49,3.33,3.33,3.34c1.84,0,3.33-1.49,3.33-3.33c0-1.84-1.49-3.34-3.33-3.34
	l0,0C41.53,9.17,40.04,10.66,40.04,12.51z M45.04,12.51c0,0.92-0.75,1.67-1.67,1.67s-1.67-0.75-1.67-1.67s0.75-1.67,1.67-1.67l0,0
	C44.29,10.84,45.04,11.58,45.04,12.51L45.04,12.51L45.04,12.51z"/>
<path id="Path_340" class="st0" d="M19.19,9.17h-3.33V5.84c0-0.46-0.37-0.83-0.83-0.83h-5C9.56,5,9.19,5.38,9.19,5.84v3.33H5.86
	c-0.46,0-0.83,0.37-0.83,0.83v5c0,0.46,0.37,0.83,0.83,0.83h3.33v3.33c0,0.46,0.37,0.83,0.83,0.83h5c0.46,0,0.83-0.37,0.83-0.83
	v-3.34h3.33c0.46,0,0.83-0.37,0.83-0.83v-5C20.03,9.54,19.65,9.17,19.19,9.17z M18.36,14.17h-3.33c-0.46,0-0.83,0.37-0.83,0.83v3.33
	h-3.33V15c0-0.46-0.37-0.83-0.83-0.83l0,0H6.69v-3.33h3.33c0.46,0,0.83-0.37,0.83-0.83V6.67h3.33V10c0,0.46,0.37,0.83,0.83,0.83
	h3.33V14.17z"/>
<path id="Path_341" class="st0" d="M37.64,0.01C37.6,0,37.57,0,37.53,0H12.52c-0.03,0-0.07,0-0.1,0.01C5.47,0.1-0.1,5.82,0,12.78
	C0.1,19.74,5.82,25.3,12.77,25.2c3.2-0.04,6.27-1.31,8.57-3.53h7.37c5.01,4.82,12.99,4.67,17.81-0.34
	c4.82-5.01,4.67-12.99-0.34-17.81C43.88,1.31,40.83,0.05,37.64,0.01L37.64,0.01z M37.44,23.53L37.44,23.53
	c-2.93,0.01-5.74-1.17-7.79-3.27c-0.16-0.16-0.37-0.25-0.59-0.25H21c-0.22,0-0.44,0.09-0.59,0.25c-4.23,4.3-11.15,4.37-15.45,0.14
	C0.65,16.17,0.59,9.25,4.82,4.94c2.03-2.07,4.81-3.25,7.71-3.27c0.03,0,0.06,0,0.08-0.01h24.83c0.03,0,0.06,0.01,0.08,0.01
	c6.03,0.08,10.86,5.03,10.79,11.07C48.24,18.7,43.4,23.5,37.44,23.53L37.44,23.53z"/>
</svg>
