<?xml version="1.0" encoding="utf-8"?>
<!-- Generator: Adobe Illustrator 25.2.1, SVG Export Plug-In . SVG Version: 6.00 Build 0)  -->
<svg version="1.1" id="Layer_1" xmlns="http://www.w3.org/2000/svg" xmlns:xlink="http://www.w3.org/1999/xlink" x="0px" y="0px"
	 viewBox="0 0 50 25.2" style="enable-background:new 0 0 50 25.2;" xml:space="preserve">
<style type="text/css">
	.st0{stroke:#000000;stroke-miterlimit:10;}
	.st1{stroke:#000000;stroke-width:0.5;stroke-miterlimit:10;}
</style>
<path id="Path_336" class="st0" d="M37.5,10c1.8,0,3.3-1.5,3.3-3.3s-1.5-3.3-3.3-3.3c-1.8,0-3.3,1.5-3.3,3.3l0,0
	C34.2,8.5,35.7,10,37.5,10z M37.5,5c0.9,0,1.7,0.8,1.7,1.7s-0.8,1.7-1.7,1.7s-1.7-0.8-1.7-1.7l0,0C35.9,5.7,36.6,5,37.5,5L37.5,5
	L37.5,5z"/>
<path id="Path_337" class="st0" d="M37.5,15c-1.8,0-3.3,1.5-3.3,3.3s1.5,3.3,3.3,3.3c1.8,0,3.3-1.5,3.3-3.3l0,0
	C40.9,16.5,39.4,15,37.5,15z M37.5,20c-0.9,0-1.7-0.8-1.7-1.7s0.8-1.7,1.7-1.7s1.7,0.8,1.7,1.7l0,0C39.2,19.3,38.5,20,37.5,20
	C37.5,20,37.5,20,37.5,20L37.5,20z"/>
<path id="Path_338" class="st1" d="M31.7,9.2c-1.8,0-3.3,1.5-3.3,3.3s1.5,3.3,3.3,3.3c1.8,0,3.3-1.5,3.3-3.3l0,0
	C35,10.7,33.5,9.2,31.7,9.2z M31.7,14.2c-0.9,0-1.7-0.8-1.7-1.7s0.8-1.7,1.7-1.7c0.9,0,1.7,0.8,1.7,1.7S32.6,14.2,31.7,14.2
	L31.7,14.2L31.7,14.2z"/>
<path id="Path_339" class="st0" d="M40,12.5c0,1.8,1.5,3.3,3.3,3.3c1.8,0,3.3-1.5,3.3-3.3s-1.5-3.3-3.3-3.3l0,0
	C41.5,9.2,40,10.7,40,12.5z M45,12.5c0,0.9-0.8,1.7-1.7,1.7s-1.7-0.8-1.7-1.7s0.8-1.7,1.7-1.7l0,0C44.3,10.8,45,11.6,45,12.5
	L45,12.5L45,12.5z"/>
<path id="Path_340" class="st1" d="M19.2,9.2h-3.3V5.8C15.9,5.4,15.5,5,15,5h-5C9.6,5,9.2,5.4,9.2,5.8v3.3H5.9C5.4,9.2,5,9.5,5,10v5
	c0,0.5,0.4,0.8,0.8,0.8h3.3v3.3c0,0.5,0.4,0.8,0.8,0.8h5c0.5,0,0.8-0.4,0.8-0.8v-3.3h3.3c0.5,0,0.8-0.4,0.8-0.8v-5
	C20,9.5,19.6,9.2,19.2,9.2z M18.4,14.2H15c-0.5,0-0.8,0.4-0.8,0.8v3.3h-3.3V15c0-0.5-0.4-0.8-0.8-0.8l0,0H6.7v-3.3H10
	c0.5,0,0.8-0.4,0.8-0.8V6.7h3.3V10c0,0.5,0.4,0.8,0.8,0.8h3.3L18.4,14.2L18.4,14.2z"/>
<path id="Path_341" class="st1" d="M37.6,0c0,0-0.1,0-0.1,0h-25c0,0-0.1,0-0.1,0C5.5,0.1-0.1,5.8,0,12.8s5.8,12.5,12.8,12.4
	c3.2,0,6.3-1.3,8.6-3.5h7.4c5,4.8,13,4.7,17.8-0.3s4.7-13-0.3-17.8C43.9,1.3,40.8,0,37.6,0L37.6,0z M37.4,23.5L37.4,23.5
	c-2.9,0-5.7-1.2-7.8-3.3c-0.2-0.2-0.4-0.2-0.6-0.2H21c-0.2,0-0.4,0.1-0.6,0.2C16.2,24.6,9.3,24.6,5,20.4C0.6,16.2,0.6,9.2,4.8,4.9
	c2-2.1,4.8-3.2,7.7-3.3c0,0,0.1,0,0.1,0h24.8c0,0,0.1,0,0.1,0c6,0.1,10.9,5,10.8,11.1C48.2,18.7,43.4,23.5,37.4,23.5L37.4,23.5z"/>
</svg>
