<?xml version="1.0" encoding="utf-8"?>
<!-- Generator: Adobe Illustrator 24.3.0, SVG Export Plug-In . SVG Version: 6.00 Build 0)  -->
<svg version="1.1" id="Layer_1" xmlns="http://www.w3.org/2000/svg" xmlns:xlink="http://www.w3.org/1999/xlink" x="0px" y="0px"
	 viewBox="0 0 34.6 34.6" style="enable-background:new 0 0 34.6 34.6;" xml:space="preserve">
<style type="text/css">
	.st0{fill:#FAB545;}
	.st1{fill:#F59F2C;}
	.st2{fill:#D6791D;}
	.st3{opacity:0.86;}
	.st4{fill:#0E1121;}
</style>
<g id="Group_1205" transform="translate(798.484 4260.313)">
	<path id="Path_622" class="st0" d="M-781.4-4221.7"/>
	<g id="Group_142" transform="translate(4.516 3.687)">
		<g id="Group_141">
			<path id="Path_623" class="st1" d="M-785.7-4229.4c-9.6,0-17.3-7.8-17.3-17.3c0-9.6,7.8-17.3,17.3-17.3c9.6,0,17.3,7.8,17.3,17.3
				C-768.4-4237.1-776.1-4229.4-785.7-4229.4z"/>
		</g>
	</g>
	<path id="Path_624" class="st2" d="M-765-4243.2c0-9-7.3-16.4-16.4-16.4v32.7C-772.4-4226.9-765-4234.2-765-4243.2z"/>
	<g id="Cent" transform="translate(13.926 8.704)" class="st3">
		<path id="Path_625" class="st4" d="M-794.1-4253.1v-5c1.5,0.4,2.5,1.3,2.5,2.4c0.1,0.7,0.7,1.2,1.4,1.1c0.6,0,1.1-0.5,1.2-1.1
			c0-2.4-2.2-4.5-5-4.9v-1.4c-0.1-0.7-0.7-1.2-1.4-1.1c-0.6,0-1.1,0.5-1.2,1.1v1.4c-2.9,0.5-5,2.5-5,4.9s2.2,4.5,5,4.9v5
			c-1.5-0.4-2.5-1.3-2.5-2.4c0.1-0.7-0.5-1.3-1.1-1.4s-1.3,0.5-1.4,1.1c0,0.1,0,0.1,0,0.2c0,2.4,2.2,4.5,5,4.9v1.4
			c-0.1,0.7,0.5,1.3,1.2,1.4s1.3-0.5,1.4-1.1c0-0.1,0-0.1,0-0.2v-1.4c2.9-0.5,5-2.5,5-4.9S-791.2-4252.6-794.1-4253.1L-794.1-4253.1
			z M-799.1-4255.7c0-1.1,1.1-2,2.5-2.4v4.7C-798-4253.7-799.1-4254.6-799.1-4255.7z M-794.1-4245.8v-4.7c1.5,0.4,2.5,1.3,2.5,2.4
			S-792.6-4246.2-794.1-4245.8L-794.1-4245.8z"/>
	</g>
	<path id="Path_626" class="st4" d="M-780.1-4233.2v-1.4c2.9-0.5,5-2.5,5-4.9s-2.2-4.5-5-4.9v-5c1.5,0.4,2.5,1.3,2.5,2.4
		c0.1,0.7,0.7,1.2,1.4,1.1c0.6,0,1.1-0.5,1.2-1.1c0-2.4-2.2-4.5-5-4.9v-1.4c0-0.7-0.6-1.3-1.3-1.3l0,0v22.7
		C-780.7-4231.9-780.1-4232.5-780.1-4233.2z M-780.1-4241.8c1.5,0.4,2.5,1.3,2.5,2.4s-1.1,2-2.5,2.4V-4241.8z"/>
</g>
</svg>
