<?xml version="1.0" encoding="utf-8"?>
<!-- Generator: Adobe Illustrator 25.2.1, SVG Export Plug-In . SVG Version: 6.00 Build 0)  -->
<svg version="1.1" id="Layer_1" xmlns="http://www.w3.org/2000/svg" xmlns:xlink="http://www.w3.org/1999/xlink" x="0px" y="0px"
	 viewBox="0 0 22 37.7" style="enable-background:new 0 0 22 37.7;" xml:space="preserve">
<g id="Mouse" transform="translate(0 0)">
	<path id="Path_342" d="M22,18.5c0-0.7-0.1-1.4-0.2-2c-0.8-4.8-4.7-8.5-9.6-9.1c0.3-1.7,1.5-5.5,6.1-5.7L18.1,0
		c-5.3,0.3-7.2,4.6-7.6,7.3c-2.7,0.1-5.3,1.2-7.2,3.2c-2,1.9-3.2,4.5-3.2,7.2c-0.1,3.1,0,6.1,0,9.2c0,0.6,0.1,1.1,0.2,1.7
		C1,33.5,5,37.2,9.9,37.7c6,0.6,11.4-3.9,11.9-9.9c0-0.2,0-0.4,0-0.5c0.1-1.6,0-3.1,0-4.7h0C22,21.2,22,19.8,22,18.5z M9.9,9.5
		c0.1,1,0.5,1.3,1.1,1.3c0.6,0,0.9-0.4,1-1.3c4.6,0.5,8,4.5,7.7,9.1l-7.7,0.5c-0.2-1-0.5-1.4-1.1-1.3s-0.9,0.4-1.1,1.3l-7.7-0.5
		C1.9,14.1,5.3,10.1,9.9,9.5z M19.8,21.2c0,1.9,0,3.7,0,5.6c0,4.9-3.9,8.8-8.8,8.8c-4.3,0-8-3.1-8.7-7.3c-0.1-1.2-0.2-2.4-0.2-3.6
		c0-1.2,0-2.5,0-3.8c0.5,0,1,0,1.5,0.1c2.3,0.2,4.6,0.4,6.9,0.5c1,0,2,0,3-0.1c1.4-0.1,2.9-0.2,4.3-0.3c0.6,0,1.3-0.1,2-0.1
		L19.8,21.2z"/>
	<path id="Path_343" d="M11,22.2c0.6,0,1.1-0.4,1.1-1c0,0,0,0,0,0c0-0.6,0-1.2,0-1.8l0,0c0-0.6,0-1.2,0-1.8c0-0.6-0.5-1-1-1.1l0,0
		c-0.6,0-1.1,0.4-1.1,1c0,0,0,0,0,0.1c0,1.2,0,2.4,0,3.5C9.9,21.7,10.4,22.2,11,22.2C10.9,22.2,10.9,22.2,11,22.2z"/>
</g>
</svg>
