<?xml version="1.0" encoding="utf-8"?>
<!-- Generator: Adobe Illustrator 24.3.0, SVG Export Plug-In . SVG Version: 6.00 Build 0)  -->
<svg version="1.1" id="Layer_1" xmlns="http://www.w3.org/2000/svg" xmlns:xlink="http://www.w3.org/1999/xlink" x="0px" y="0px"
	 viewBox="0 0 21.96 37.74" style="enable-background:new 0 0 21.96 37.74;" xml:space="preserve">
<style type="text/css">
	.st0{fill:#FFFFFF;}
</style>
<g id="Mouse" transform="translate(0 0)">
	<path id="Path_342" class="st0" d="M21.95,18.48c-0.01-0.68-0.06-1.37-0.16-2.04c-0.82-4.82-4.74-8.52-9.6-9.06
		c0.3-1.69,1.48-5.46,6.06-5.74L18.15,0c-5.29,0.32-7.23,4.57-7.62,7.32C7.79,7.4,5.2,8.53,3.28,10.48c-2,1.88-3.16,4.48-3.23,7.22
		c-0.08,3.07-0.04,6.15-0.03,9.22c0.01,0.56,0.06,1.12,0.15,1.68c0.82,4.9,4.83,8.63,9.77,9.1c6.03,0.56,11.38-3.88,11.94-9.91
		c0.02-0.17,0.03-0.35,0.04-0.52c0.06-1.57,0.01-3.14,0.01-4.71h0.02C21.95,21.2,21.97,19.84,21.95,18.48z M9.89,9.55
		c0.14,0.96,0.47,1.33,1.15,1.31c0.61-0.02,0.94-0.44,1.03-1.29c4.58,0.53,7.95,4.53,7.71,9.14l-7.7,0.55
		c-0.17-0.97-0.49-1.35-1.13-1.33s-0.94,0.41-1.07,1.33l-7.7-0.55C1.94,14.09,5.31,10.09,9.89,9.55z M19.81,21.19
		c0,1.86,0.01,3.71,0,5.57c0.01,4.87-3.92,8.83-8.79,8.84c-4.3,0.01-7.98-3.07-8.71-7.31c-0.13-1.21-0.18-2.42-0.15-3.63
		c-0.02-1.25,0-2.5,0-3.8c0.52,0.03,1,0.05,1.49,0.09c2.29,0.17,4.58,0.38,6.87,0.49c1.02,0.01,2.03-0.03,3.04-0.14
		c1.43-0.09,2.86-0.2,4.29-0.3c0.64-0.05,1.28-0.1,1.97-0.15L19.81,21.19z"/>
	<path id="Path_343" class="st0" d="M10.96,22.18c0.58,0.02,1.06-0.44,1.08-1.01c0-0.01,0-0.03,0-0.04c0.01-0.59,0-1.17,0-1.76l0,0
		c0-0.6,0-1.19,0-1.79c0-0.58-0.46-1.05-1.04-1.06c0,0,0,0,0,0c-0.57-0.02-1.05,0.42-1.07,0.99c0,0.02,0,0.04,0,0.07
		c0,1.18,0,2.37,0,3.55c-0.01,0.57,0.44,1.05,1.02,1.06C10.94,22.18,10.95,22.18,10.96,22.18z"/>
</g>
</svg>
