<?xml version="1.0" encoding="utf-8"?>
<!-- Generator: Adobe Illustrator 25.2.1, SVG Export Plug-In . SVG Version: 6.00 Build 0)  -->
<svg version="1.1" id="Layer_1" xmlns="http://www.w3.org/2000/svg" xmlns:xlink="http://www.w3.org/1999/xlink" x="0px" y="0px"
	 viewBox="0 0 58.2 39.7" style="enable-background:new 0 0 58.2 39.7;" xml:space="preserve">
<style type="text/css">
	.st0{stroke:#000000;stroke-width:0.45;stroke-miterlimit:10;}
</style>
<g id="Group_1588" transform="translate(457.48 -364.104)">
	<path id="Path_15926" class="st0" d="M-400.3,385c-1-6.4-2.7-12.6-5.1-18.5c-0.1-0.3-0.3-0.6-0.6-0.8c-2.4-2-5.9-2.1-8.5-0.3
		c-0.4,0.2-0.8,0.4-1.2,0.4c-1.9,0-3.9,0-5.8,0c-6.6,0-13.2,0-19.9,0c-0.4,0-0.7-0.1-1-0.4c-2.5-1.8-5.9-1.8-8.3,0.1
		c-0.3,0.2-0.6,0.6-0.8,0.9c-4.1,10-6.2,20.7-6.1,31.5c-0.1,2.5,1.5,4.8,4,5.5c2.9,1,6-0.6,7-3.4c1.1-2.7,2.3-5.4,3.4-8.2
		c0.5-1.2,1.5-2.2,2.7-2.7c0.1,0.1,0.2,0.2,0.2,0.2c2.3,2.9,5.9,2.9,8.2-0.1c0.2-0.2,0.4-0.3,0.7-0.3c2,0,3.9,0,5.8,0
		c0.3,0,0.6,0.2,0.8,0.4c1.5,2.2,4.5,2.9,6.7,1.4c0.5-0.3,0.9-0.7,1.3-1.2c0.1-0.3,0.5-0.4,0.8-0.2c0,0,0.1,0,0.1,0.1
		c1,0.5,1.8,1.4,2.2,2.5c1.1,2.8,2.3,5.6,3.5,8.4c1.2,2.9,4.5,4.2,7.4,3c0.7-0.3,1.4-0.7,1.9-1.3c1.1-1.2,1.7-2.8,1.6-4.4
		C-399.4,393.4-399.7,389.1-400.3,385z M-435.5,367.4c0-0.1,0-0.2,0-0.4h14.2v0.9c0,2.2,0,4.4,0,6.5c0.1,1.5-1.1,2.8-2.6,2.9
		c-0.1,0-0.2,0-0.3,0c-2.8,0-5.6,0-8.5,0c-1.5,0.1-2.8-1-2.9-2.5c0-0.1,0-0.2,0-0.3C-435.6,372.1-435.5,369.7-435.5,367.4
		L-435.5,367.4z M-432.5,386.7c0.1,1.9-1.3,3.6-3.2,3.7c-0.2,0-0.4,0-0.5,0c-2,0-3.7-1.6-3.8-3.6c0-0.1,0-0.2,0-0.3
		c0-2,1.6-3.7,3.6-3.7c0.1,0,0.1,0,0.2,0c2,0,3.7,1.6,3.7,3.7C-432.5,386.6-432.5,386.7-432.5,386.7L-432.5,386.7z M-420.6,390.5
		c-1.9,0.1-3.6-1.3-3.7-3.3c0-0.2,0-0.3,0-0.5c-0.1-2,1.5-3.7,3.5-3.8c0.1,0,0.2,0,0.3,0c2,0,3.7,1.6,3.7,3.6c0,0.1,0,0.1,0,0.2
		c0,2-1.6,3.7-3.6,3.8C-420.5,390.5-420.6,390.5-420.6,390.5L-420.6,390.5z M-401.3,400.6c-1,1.5-2.7,2.2-4.4,1.9
		c-1.5-0.2-2.9-1.2-3.4-2.6c-1.1-2.5-2.1-4.9-3.1-7.4c-0.5-1.8-1.8-3.4-3.5-4.2c0.4-3.7-1.5-6.4-4.6-6.6c-3.1-0.1-5.2,2.3-5.2,6.1
		h-5.8c0.5-2.4-0.7-4.7-2.9-5.7c-1.7-0.9-3.8-0.6-5.1,0.7c-1.6,1.2-2.3,3.4-1.6,5.3c-0.2,0.1-0.5,0.3-0.7,0.5
		c-1.1,0.7-2,1.7-2.5,2.9c-1.1,2.8-2.3,5.5-3.4,8.3c-0.7,1.9-2.7,3-4.7,2.7c-1.8-0.2-3.3-1.5-3.8-3.3c-0.2-0.8-0.2-1.5-0.2-2.3
		c0.1-8.2,1.4-16.4,3.9-24.3c0.5-1.6,1.2-3.1,1.7-4.7c0.5-1.8,1.9-2.4,3.5-2.7c1.6-0.3,3.3,0.2,4.5,1.4c0.3,0.2,0.6,0.3,0.9,0.4
		c1.4,0,2.8,0,4.2,0h0.8v0.8c0,2.1,0,4.2,0,6.4c0,2.4,1.9,4.4,4.3,4.4c2.8-0.1,5.5-0.1,8.3,0c2.3,0,4.1-1.9,4.2-4.2
		c0-2.2,0-4.3,0-6.5V367c1.6,0,3.2,0,4.7,0c0.5,0,1-0.1,1.4-0.5c1.9-1.7,4.8-1.8,6.8-0.2c0.3,0.3,0.6,0.6,0.8,1
		c2.6,6.2,4.3,12.8,5.1,19.5c0.4,3.6,0.5,7.3,0.8,10.9C-400.4,398.8-400.7,399.8-401.3,400.6L-401.3,400.6z"/>
	<path id="Path_15927" class="st0" d="M-444.7,370.2c-3.7,0-6.7,3-6.7,6.6c0,3.7,2.9,6.7,6.6,6.8c3.6-0.1,6.6-3,6.6-6.7
		C-438.2,373.4-441.1,370.4-444.7,370.2z M-444.9,382.6c-3,0-5.5-2.5-5.4-5.5c0,0,0-0.1,0-0.1c-0.1-3,2.3-5.5,5.3-5.5
		c0.1,0,0.1,0,0.2,0c3,0,5.5,2.4,5.5,5.4c0,0.1,0,0.1,0,0.2c0.1,3-2.3,5.5-5.3,5.6C-444.7,382.6-444.8,382.6-444.9,382.6
		L-444.9,382.6z"/>
	<path id="Path_15928" class="st0" d="M-412,370.2c-3.7,0-6.6,3-6.6,6.7c0,3.7,3,6.7,6.6,6.7c3.6-0.1,6.5-3.1,6.6-6.7
		C-405.4,373.3-408.3,370.3-412,370.2z M-411.9,382.6c-3,0-5.5-2.4-5.5-5.4c0,0,0-0.1,0-0.1c-0.1-3,2.2-5.5,5.2-5.6
		c0.1,0,0.2,0,0.3,0c3,0,5.5,2.4,5.5,5.4c0,0.1,0,0.1,0,0.2C-406.4,379.9-408.8,382.5-411.9,382.6
		C-411.9,382.6-411.9,382.6-411.9,382.6z"/>
	<path id="Path_15929" class="st0" d="M-428.4,381.1c-0.8,0-1.6,0-2.4,0c-0.4,0-0.7-0.1-0.7-0.6c0-0.5,0.4-0.6,0.7-0.6
		c1.6,0,3.3,0,4.9,0c0.4,0,0.8,0.1,0.8,0.6c0,0.5-0.3,0.6-0.8,0.6C-426.7,381.1-427.6,381.1-428.4,381.1z"/>
	<path id="Path_15930" class="st0" d="M-428.4,383.8c-0.5,0-1,0-1.6,0c-0.4,0-0.8-0.2-0.7-0.6c0.1-0.3,0.4-0.5,0.7-0.6
		c1.1-0.1,2.1-0.1,3.2,0c0.3,0.1,0.6,0.3,0.7,0.6c0,0.4-0.3,0.6-0.7,0.6C-427.4,383.7-427.9,383.7-428.4,383.8L-428.4,383.8z"/>
	<path id="Path_15931" class="st0" d="M-420.7,384c-1.5,0.1-2.6,1.2-2.6,2.7c0.1,1.5,1.2,2.6,2.7,2.7c1.5-0.1,2.7-1.3,2.7-2.8
		C-418,385.1-419.2,384-420.7,384z M-420.6,388.2c-0.8,0-1.5-0.6-1.6-1.4c0,0,0-0.1,0-0.2c0-0.8,0.6-1.5,1.4-1.6c0,0,0.1,0,0.1,0
		c0.8,0,1.5,0.6,1.6,1.4c0,0,0,0.1,0,0.1c0,0.8-0.6,1.5-1.4,1.6C-420.5,388.2-420.6,388.2-420.6,388.2L-420.6,388.2z"/>
	<path id="Path_15932" class="st0" d="M-436.1,384c-1.5,0-2.7,1.2-2.7,2.7c0.1,1.5,1.2,2.6,2.7,2.7c1.5-0.1,2.6-1.2,2.7-2.7
		C-433.5,385.2-434.7,384-436.1,384z M-436.2,388.2c-0.8,0-1.5-0.6-1.6-1.4c0-0.1,0-0.1,0-0.2c0-0.8,0.6-1.5,1.4-1.6
		c0,0,0.1,0,0.1,0c0.8,0,1.5,0.6,1.6,1.4c0,0,0,0.1,0,0.1c0,0.8-0.6,1.5-1.4,1.6C-436.1,388.2-436.1,388.2-436.2,388.2L-436.2,388.2
		z"/>
	<path id="Path_15933" class="st0" d="M-442.1,375.7v1.4h-2v2h-1.4v-2h-2v-1.4h2v-2h1.4v2H-442.1z"/>
	<path id="Path_15934" class="st0" d="M-411.8,376c-0.9,0-1.6-0.7-1.6-1.6s0.7-1.6,1.6-1.6s1.6,0.7,1.6,1.6
		C-410.2,375.3-411,376-411.8,376z M-411.8,373.1c-0.7,0-1.3,0.6-1.3,1.3c0,0.7,0.6,1.3,1.3,1.3c0.7,0,1.3-0.6,1.3-1.3
		C-410.6,373.7-411.1,373.1-411.8,373.1L-411.8,373.1z"/>
	<path id="Path_15935" class="st0" d="M-414.7,378.6c-0.9,0-1.6-0.7-1.6-1.6s0.7-1.6,1.6-1.6s1.6,0.7,1.6,1.6
		S-413.8,378.6-414.7,378.6z M-414.7,375.7c-0.7,0-1.3,0.6-1.3,1.3c0,0.7,0.6,1.3,1.3,1.3c0.7,0,1.3-0.6,1.3-1.3
		S-414,375.7-414.7,375.7z"/>
	<path id="Path_15936" class="st0" d="M-409,378.6c-0.9,0-1.6-0.7-1.6-1.6s0.7-1.6,1.6-1.6s1.6,0.7,1.6,1.6S-408.1,378.6-409,378.6z
		 M-409,375.7c-0.7,0-1.3,0.6-1.3,1.3c0,0.7,0.6,1.3,1.3,1.3c0.7,0,1.3-0.6,1.3-1.3S-408.3,375.7-409,375.7z"/>
	<path id="Path_15937" class="st0" d="M-411.8,381.3c-0.9,0-1.6-0.7-1.6-1.6s0.7-1.6,1.6-1.6s1.6,0.7,1.6,1.6
		S-411,381.3-411.8,381.3z M-411.8,378.4c-0.7,0-1.3,0.6-1.3,1.3c0,0.7,0.6,1.3,1.3,1.3c0.7,0,1.3-0.6,1.3-1.3
		C-410.6,379-411.1,378.4-411.8,378.4L-411.8,378.4z"/>
</g>
</svg>
