<?xml version="1.0" encoding="utf-8"?>
<!-- Generator: Adobe Illustrator 24.3.0, SVG Export Plug-In . SVG Version: 6.00 Build 0)  -->
<svg version="1.1" id="Layer_1" xmlns="http://www.w3.org/2000/svg" xmlns:xlink="http://www.w3.org/1999/xlink" x="0px" y="0px"
	 viewBox="0 0 58.16 39.65" style="enable-background:new 0 0 58.16 39.65;" xml:space="preserve">
<style type="text/css">
	.st0{fill:#FFFFFF;}
</style>
<g id="Group_1588" transform="translate(457.48 -364.104)">
	<path id="Path_15926" class="st0" d="M-400.33,384.97c-0.96-6.35-2.68-12.57-5.12-18.51c-0.13-0.3-0.33-0.56-0.57-0.77
		c-2.43-2.01-5.9-2.12-8.45-0.27c-0.35,0.24-0.76,0.38-1.18,0.39c-1.92,0.04-3.85,0.02-5.77,0.02c-6.62,0-13.25-0.01-19.87-0.02
		c-0.36-0.01-0.71-0.14-1-0.35c-2.47-1.84-5.86-1.81-8.29,0.07c-0.33,0.25-0.59,0.57-0.77,0.94c-4.09,10-6.16,20.7-6.11,31.5
		c-0.09,2.53,1.54,4.79,3.97,5.5c2.87,0.95,5.97-0.56,7-3.4c1.13-2.72,2.27-5.44,3.38-8.17c0.51-1.21,1.48-2.17,2.71-2.66
		c0.1,0.11,0.16,0.18,0.22,0.24c2.32,2.92,5.9,2.86,8.16-0.12c0.18-0.2,0.42-0.32,0.69-0.34c1.95-0.03,3.89-0.03,5.84,0
		c0.3,0.03,0.59,0.18,0.78,0.41c1.47,2.24,4.48,2.87,6.72,1.4c0.5-0.33,0.93-0.74,1.28-1.23c0.15-0.27,0.49-0.38,0.76-0.23
		c0.04,0.02,0.07,0.05,0.11,0.07c0.98,0.55,1.75,1.41,2.17,2.45c1.14,2.79,2.28,5.58,3.46,8.35c1.21,2.89,4.53,4.25,7.41,3.04
		c0.71-0.3,1.35-0.74,1.89-1.29c1.13-1.19,1.71-2.8,1.6-4.43C-399.37,393.35-399.71,389.14-400.33,384.97z M-435.54,367.37
		c0.01-0.12,0.03-0.25,0.05-0.37h14.2v0.87c0,2.18,0.02,4.37-0.01,6.55c0.09,1.5-1.06,2.79-2.56,2.88c-0.1,0.01-0.21,0.01-0.31,0
		c-2.82,0.04-5.64,0.04-8.45,0c-1.5,0.1-2.8-1.03-2.9-2.53c-0.01-0.11-0.01-0.22,0-0.33C-435.57,372.1-435.54,369.74-435.54,367.37
		L-435.54,367.37z M-432.49,386.74c0.14,1.92-1.3,3.59-3.21,3.73c-0.17,0.01-0.35,0.01-0.52,0c-2.03,0.04-3.72-1.57-3.76-3.61
		c0-0.1,0-0.2,0.01-0.31c-0.01-2.01,1.61-3.66,3.62-3.67c0.06,0,0.11,0,0.17,0c2.04,0,3.7,1.65,3.7,3.7
		C-432.48,386.64-432.48,386.69-432.49,386.74L-432.49,386.74z M-420.65,390.47c-1.92,0.12-3.58-1.34-3.7-3.26
		c-0.01-0.17-0.01-0.34,0.01-0.52c-0.1-2.01,1.45-3.71,3.46-3.81c0.11-0.01,0.22-0.01,0.33,0c2.02-0.02,3.68,1.6,3.7,3.62
		c0,0.07,0,0.15,0,0.22c0.04,2.03-1.57,3.71-3.6,3.75C-420.51,390.48-420.58,390.48-420.65,390.47L-420.65,390.47z M-401.29,400.65
		c-0.96,1.45-2.69,2.19-4.4,1.87c-1.54-0.17-2.86-1.17-3.44-2.61c-1.07-2.46-2.11-4.94-3.08-7.44c-0.54-1.84-1.82-3.37-3.54-4.23
		c0.39-3.73-1.51-6.41-4.61-6.56c-3.15-0.15-5.21,2.27-5.18,6.14h-5.77c0.52-2.35-0.72-4.74-2.94-5.67
		c-1.69-0.86-3.75-0.58-5.14,0.72c-1.62,1.24-2.27,3.38-1.61,5.31c-0.23,0.14-0.48,0.31-0.74,0.46c-1.14,0.67-2.02,1.7-2.5,2.94
		c-1.13,2.77-2.27,5.54-3.44,8.29c-0.74,1.89-2.7,3-4.7,2.68c-1.82-0.19-3.32-1.49-3.77-3.26c-0.16-0.77-0.22-1.55-0.19-2.34
		c0.07-8.25,1.39-16.44,3.91-24.29c0.51-1.58,1.17-3.11,1.66-4.69c0.54-1.77,1.89-2.42,3.51-2.71c1.64-0.28,3.33,0.22,4.55,1.36
		c0.26,0.21,0.59,0.33,0.93,0.35c1.4,0.04,2.8,0.01,4.2,0.01h0.8v0.83c0,2.12,0.03,4.24-0.01,6.36c-0.01,2.4,1.93,4.35,4.33,4.36
		c2.75-0.1,5.51-0.09,8.26-0.01c2.28-0.05,4.11-1.89,4.17-4.17c0.03-2.17,0.01-4.33,0.01-6.49v-0.89c1.64,0,3.19-0.02,4.74,0.01
		c0.5,0.03,0.98-0.15,1.35-0.49c1.93-1.7,4.8-1.78,6.82-0.2c0.34,0.27,0.6,0.62,0.77,1.02c2.58,6.24,4.3,12.81,5.1,19.52
		c0.41,3.62,0.54,7.27,0.77,10.91C-400.4,398.77-400.69,399.8-401.29,400.65L-401.29,400.65z"/>
	<path id="Path_15927" class="st0" d="M-444.73,370.24c-3.67,0.02-6.66,2.98-6.71,6.65c-0.01,3.67,2.91,6.69,6.58,6.8
		c3.65-0.07,6.58-3.02,6.63-6.67C-438.19,373.37-441.08,370.37-444.73,370.24z M-444.86,382.56c-3.03-0.03-5.47-2.5-5.44-5.54
		c0-0.03,0-0.06,0-0.09c-0.07-3,2.31-5.49,5.31-5.55c0.06,0,0.12,0,0.18,0c3-0.03,5.45,2.38,5.47,5.38c0,0.06,0,0.13,0,0.19
		c0.08,3.02-2.3,5.53-5.32,5.61C-444.74,382.56-444.8,382.56-444.86,382.56L-444.86,382.56z"/>
	<path id="Path_15928" class="st0" d="M-411.97,370.24c-3.67,0.05-6.63,3.04-6.63,6.71c0.01,3.67,2.95,6.67,6.63,6.74
		c3.65-0.11,6.55-3.08,6.58-6.73C-405.41,373.31-408.32,370.33-411.97,370.24z M-411.94,382.56c-3.02,0.04-5.5-2.38-5.53-5.4
		c0-0.04,0-0.09,0-0.13c-0.13-2.99,2.2-5.52,5.19-5.65c0.09,0,0.17-0.01,0.26,0c3-0.04,5.46,2.35,5.51,5.35c0,0.06,0,0.12,0,0.18
		c0.08,3.03-2.3,5.56-5.34,5.64C-411.89,382.56-411.92,382.56-411.94,382.56z"/>
	<path id="Path_15929" class="st0" d="M-428.4,381.12c-0.81,0-1.61,0-2.42,0c-0.43,0-0.73-0.15-0.72-0.63
		c0.01-0.46,0.35-0.56,0.72-0.57c1.63-0.01,3.27-0.01,4.9,0c0.4,0,0.77,0.11,0.76,0.6c-0.01,0.46-0.34,0.61-0.76,0.6
		C-426.74,381.11-427.57,381.12-428.4,381.12z"/>
	<path id="Path_15930" class="st0" d="M-428.42,383.75c-0.52,0-1.05,0-1.57,0c-0.44,0-0.78-0.24-0.72-0.64
		c0.12-0.3,0.38-0.52,0.7-0.59c1.07-0.07,2.13-0.07,3.2,0c0.32,0.07,0.58,0.29,0.69,0.59c0.05,0.4-0.3,0.64-0.73,0.63
		C-427.37,383.74-427.9,383.74-428.42,383.75L-428.42,383.75z"/>
	<path id="Path_15931" class="st0" d="M-420.69,383.98c-1.46,0.07-2.62,1.25-2.65,2.72c0.07,1.46,1.25,2.62,2.71,2.68
		c1.49-0.07,2.67-1.28,2.7-2.77C-418.03,385.15-419.23,384.01-420.69,383.98z M-420.64,388.23c-0.82,0.05-1.52-0.57-1.57-1.38
		c0-0.05,0-0.11,0-0.16c-0.05-0.82,0.58-1.53,1.4-1.57c0.05,0,0.1,0,0.15,0c0.82-0.05,1.52,0.58,1.57,1.4c0,0.05,0,0.1,0,0.15
		c0.05,0.81-0.57,1.52-1.38,1.57C-420.53,388.24-420.58,388.24-420.64,388.23L-420.64,388.23z"/>
	<path id="Path_15932" class="st0" d="M-436.14,383.98c-1.49,0.03-2.69,1.22-2.74,2.71c0.08,1.46,1.25,2.62,2.71,2.69
		c1.46-0.06,2.63-1.23,2.7-2.69C-433.51,385.23-434.68,384.04-436.14,383.98z M-436.17,388.23c-0.81,0.05-1.51-0.57-1.56-1.38
		c0-0.06,0-0.12,0-0.18c-0.04-0.82,0.59-1.52,1.41-1.57c0.05,0,0.1,0,0.15,0c0.83-0.04,1.53,0.6,1.57,1.43c0,0.05,0,0.09,0,0.14
		c0.04,0.82-0.6,1.52-1.42,1.56C-436.07,388.24-436.12,388.24-436.17,388.23L-436.17,388.23z"/>
	<path id="Path_15933" class="st0" d="M-442.15,375.72v1.37h-1.99v1.99h-1.37v-1.99h-1.99v-1.37h1.99v-1.99h1.37v1.99H-442.15z"/>
	<path id="Path_15934" class="st0" d="M-411.84,375.97c-0.88,0-1.6-0.72-1.6-1.6c0-0.88,0.72-1.6,1.6-1.6c0.88,0,1.6,0.72,1.6,1.6
		C-410.24,375.26-410.96,375.97-411.84,375.97z M-411.84,373.11c-0.69,0-1.26,0.56-1.26,1.26c0,0.69,0.56,1.26,1.26,1.26
		c0.69,0,1.26-0.56,1.26-1.26C-410.58,373.68-411.15,373.11-411.84,373.11L-411.84,373.11z"/>
	<path id="Path_15935" class="st0" d="M-414.7,378.57c-0.88,0-1.6-0.72-1.6-1.6c0-0.88,0.72-1.6,1.6-1.6c0.88,0,1.6,0.72,1.6,1.6
		C-413.1,377.85-413.82,378.57-414.7,378.57z M-414.7,375.71c-0.69,0-1.26,0.56-1.26,1.26c0,0.69,0.56,1.26,1.26,1.26
		c0.69,0,1.26-0.56,1.26-1.26C-413.44,376.27-414.01,375.71-414.7,375.71z"/>
	<path id="Path_15936" class="st0" d="M-408.98,378.57c-0.88,0-1.6-0.72-1.6-1.6c0-0.88,0.72-1.6,1.6-1.6c0.88,0,1.6,0.72,1.6,1.6
		C-407.38,377.85-408.1,378.57-408.98,378.57z M-408.98,375.71c-0.69,0-1.26,0.56-1.26,1.26c0,0.69,0.56,1.26,1.26,1.26
		c0.69,0,1.26-0.56,1.26-1.26C-407.72,376.27-408.29,375.71-408.98,375.71z"/>
	<path id="Path_15937" class="st0" d="M-411.84,381.29c-0.88,0-1.6-0.72-1.6-1.6c0-0.88,0.72-1.6,1.6-1.6c0.88,0,1.6,0.72,1.6,1.6
		C-410.24,380.57-410.96,381.28-411.84,381.29z M-411.84,378.43c-0.69,0-1.26,0.56-1.26,1.26c0,0.69,0.56,1.26,1.26,1.26
		c0.69,0,1.26-0.56,1.26-1.26C-410.59,378.99-411.15,378.43-411.84,378.43L-411.84,378.43z"/>
</g>
</svg>
