<?xml version="1.0" encoding="utf-8"?>
<!-- Generator: Adobe Illustrator 25.2.3, SVG Export Plug-In . SVG Version: 6.00 Build 0)  -->
<svg version="1.1" id="Layer_1" xmlns="http://www.w3.org/2000/svg" xmlns:xlink="http://www.w3.org/1999/xlink" x="0px" y="0px"
	 viewBox="0 0 30.9 30.9" style="enable-background:new 0 0 30.9 30.9;" xml:space="preserve">
<style type="text/css">
	.st0{fill:#FFFFFF;}
</style>
<g>
	<path id="Path_347" class="st0" d="M12.2,0C5.5,0,0,5.5,0,12.2s5.5,12.2,12.2,12.2c2.8,0,5.5-1,7.7-2.7l9,9c0.2,0.2,0.7,0.2,0.9,0
		l0,0l0.9-0.9c0.2-0.2,0.2-0.7,0-0.9l0,0l-9-9C26,14.7,25.2,7,20,2.7C17.8,1,15.1,0,12.2,0L12.2,0z M12.2,21.9
		c-5.3,0-9.7-4.3-9.7-9.7s4.3-9.7,9.7-9.7s9.7,4.3,9.7,9.7S17.6,21.9,12.2,21.9L12.2,21.9z"/>
</g>
</svg>
