<?xml version="1.0" encoding="utf-8"?>
<!-- Generator: Adobe Illustrator 24.3.0, SVG Export Plug-In . SVG Version: 6.00 Build 0)  -->
<svg version="1.1" id="Layer_1" xmlns="http://www.w3.org/2000/svg" xmlns:xlink="http://www.w3.org/1999/xlink" x="0px" y="0px"
	 viewBox="0 0 62.3 57.3" style="enable-background:new 0 0 62.3 57.3;" xml:space="preserve">
<style type="text/css">
	.st0{fill:#F59F2C;}
	.st1{fill:#161615;}
	.st2{fill:#FFFFFF;}
	.st3{enable-background:new    ;}
</style>
<g>
	<circle id="Ellipse_168" class="st0" cx="27.2" cy="30.1" r="27.2"/>
	<g id="Group_1593" transform="translate(-1617 -175.424)">
		<g id="Group_52" transform="translate(1633 192.351)">
			<path id="Path_334" class="st1" d="M12.4,18.1c-0.1,0-0.2-0.1-0.4-0.1v-2.2c0.2,0.1,0.4,0.1,0.6,0.3c0.2,0.1,0.5,0.1,0.7-0.1
				c0.1-0.2,0.1-0.5-0.1-0.6c-0.3-0.2-0.7-0.4-1.1-0.5v-0.5c0-0.3-0.2-0.5-0.5-0.5s-0.5,0.2-0.5,0.5l0,0v0.5c-0.1,0-0.2,0-0.2,0.1
				c-0.7,0.2-1.2,0.8-1.3,1.5C9.4,17,9.6,17.6,10.1,18c0.3,0.2,0.6,0.4,1,0.6v2.8c-0.4,0-0.7-0.1-1-0.4c-0.2-0.1-0.5-0.1-0.7,0.1
				c-0.1,0.2-0.1,0.5,0.1,0.7c0.5,0.3,1,0.5,1.6,0.5v0.5c0,0.3,0.2,0.5,0.5,0.5s0.5-0.2,0.5-0.5v-0.5c0.9-0.2,1.6-1,1.8-1.9
				C14,19.4,13.4,18.4,12.4,18.1L12.4,18.1z M10.7,17.3c-0.2-0.2-0.3-0.5-0.2-0.7c0.1-0.3,0.3-0.6,0.6-0.8v1.8
				C11,17.5,10.8,17.4,10.7,17.3z M12.9,20.2c-0.1,0.5-0.4,0.9-0.8,1V19l0.1,0C12.7,19.1,13,19.7,12.9,20.2z"/>
			<path id="Path_335" class="st1" d="M18.7,9.4c0.3,0,0.6-0.1,1-0.1c1.7-0.5,2.7-2.2,2.2-3.9l0,0c-0.2-0.8-0.8-1.5-1.5-1.9
				c-0.7-0.4-1.6-0.5-2.4-0.3c-0.2,0.1-0.5,0.2-0.7,0.3c0.1-0.3,0.2-0.6,0.2-0.9c0-1.6-1.3-2.9-2.9-2.9C14-0.4,13.5-0.2,13,0.2
				c-0.4,0.3-0.9,0.5-1.4,0.6c-0.5-0.1-1-0.3-1.4-0.6c-0.4-0.4-1-0.6-1.6-0.6C7-0.5,5.7,0.8,5.7,2.4c0,0.3,0.1,0.6,0.2,0.9
				C5.7,3.2,5.5,3.1,5.3,3.1C4.4,2.8,3.6,3,2.8,3.4C2.1,3.8,1.5,4.5,1.3,5.3C0.8,7,1.8,8.8,3.5,9.2l0,0c0.3,0.1,0.6,0.1,1,0.1
				C0.4,13.3-1.3,19,0,24.5c0.4,1.3,1.6,2.2,3,2.3h17.4c1.4,0,2.6-1,3-2.3C24.5,19,22.8,13.3,18.7,9.4L18.7,9.4z M6.3,6.7
				c-0.5,0.1-1,0.2-1.5,0.2c-0.2,0-0.4,0-0.6-0.1C3.9,6.7,3.7,6.3,3.8,6s0.5-0.5,0.8-0.4C5.2,5.8,5.8,6.2,6.3,6.7L6.3,6.7z
				 M18.6,5.5C19,5.5,19.3,5.7,19.4,6c0.1,0.3-0.1,0.7-0.5,0.8c-0.2,0.1-0.4,0.1-0.6,0.1c-0.5,0-1-0.1-1.5-0.2
				C17.4,6.2,18,5.8,18.6,5.5L18.6,5.5z M8.6,0.6c0.4,0.1,0.7,0.2,1,0.5c1.1,1,2.9,1.1,4,0c0.3-0.2,0.6-0.4,1-0.5
				c1,0,1.7,0.8,1.7,1.7l0,0c0,0.2-0.1,0.9-1.4,2.6l0.6,0.5l-0.2,0.2l-1.8,0.9H9.8L8.8,6.1L7.8,4.6C7.3,4,7,3.2,6.9,2.4
				C6.9,1.4,7.6,0.6,8.6,0.6L8.6,0.6z M22.1,24.2c-0.3,0.8-1,1.4-1.9,1.4H2.9c-0.9,0-1.6-0.6-1.9-1.4c-0.2-1.1-0.4-2.2-0.4-3.3
				c0-4.9,2.4-9.5,6-11.8l1-0.6l2.5-0.3L7.1,13c-0.2,0.3-0.1,0.8,0.2,1c0.1,0.1,0.3,0.1,0.4,0.1c0.2,0,0.5-0.1,0.6-0.3l3.3-5l3.3,5
				c0.2,0.3,0.7,0.4,1,0.2c0.3-0.2,0.4-0.7,0.2-1l0,0l-3-4.6l2.7,0.3l0.8,0.5c3.6,2.3,6,6.9,6,11.8C22.5,22.1,22.4,23.2,22.1,24.2
				L22.1,24.2z"/>
		</g>
	</g>
	<g id="Group_1594" transform="translate(-1619 -187)">
		<ellipse id="Ellipse_4" class="st2" cx="1669.9" cy="198.4" rx="11.4" ry="11.4"/>
		<g class="st3">
			<path class="st0" d="M1673.7,202.5h-6.5v-1.3l3-3.4c0.4-0.5,0.8-1,1-1.3s0.3-0.7,0.3-1c0-0.4-0.1-0.7-0.3-1s-0.5-0.4-0.9-0.4
				c-0.4,0-0.7,0.2-1,0.5s-0.3,0.7-0.3,1.2h-1.9l0,0c0-0.9,0.3-1.6,0.9-2.2s1.4-0.9,2.4-0.9c1,0,1.8,0.3,2.3,0.8
				c0.5,0.5,0.8,1.2,0.8,2c0,0.6-0.2,1.1-0.5,1.6s-0.8,1.1-1.6,2l-1.6,1.9l0,0h4V202.5z"/>
		</g>
	</g>
</g>
</svg>
