<svg xmlns="http://www.w3.org/2000/svg" width="18.626" height="22.925" viewBox="0 0 18.626 22.925">
  <g id="Group_1536" data-name="Group 1536" transform="translate(-279.433 -398.798)">
    <path id="Path_329" data-name="Path 329" d="M289.046,405.109a.537.537,0,0,0-.537.537h0V415.8a.537.537,0,0,0,1.074.007V405.646A.537.537,0,0,0,289.046,405.109Z" transform="translate(2.867 1.994)" fill="#fca027"/>
    <path id="Path_330" data-name="Path 330" d="M284.232,405.109a.537.537,0,0,0-.537.537h0V415.8a.537.537,0,0,0,1.074.007V405.646A.537.537,0,0,0,284.232,405.109Z" transform="translate(1.347 1.994)" fill="#fca027"/>
    <path id="Path_331" data-name="Path 331" d="M280.959,405.621v13.23a2.965,2.965,0,0,0,.788,2.042,2.642,2.642,0,0,0,1.919.829h10.159a2.637,2.637,0,0,0,1.919-.829,2.963,2.963,0,0,0,.787-2.042v-13.23a2.051,2.051,0,0,0-.526-4.033h-2.749v-.669a2.11,2.11,0,0,0-2.1-2.121h-4.8a2.109,2.109,0,0,0-2.125,2.092v.7h-2.75a2.051,2.051,0,0,0-.526,4.033Zm12.866,15.028H283.666a1.7,1.7,0,0,1-1.634-1.765V405.669h13.425v13.183a1.7,1.7,0,0,1-1.6,1.8Zm-8.515-19.73a1.035,1.035,0,0,1,1.023-1.047h4.8a1.033,1.033,0,0,1,1.051,1.016.124.124,0,0,1,0,.032v.671h-6.872Zm-3.824,1.745H296a.967.967,0,1,1,0,1.933H281.486a.967.967,0,1,1,0-1.933Z" transform="translate(0 0)" fill="#fca027"/>
    <path id="Path_332" data-name="Path 332" d="M286.639,405.109a.537.537,0,0,0-.537.537h0V415.8a.537.537,0,0,0,1.074.007V405.646A.537.537,0,0,0,286.639,405.109Z" transform="translate(2.107 1.994)" fill="#fca027"/>
  </g>
</svg>
