<?xml version="1.0" encoding="utf-8"?>
<!-- Generator: Adobe Illustrator 24.3.0, SVG Export Plug-In . SVG Version: 6.00 Build 0)  -->
<svg version="1.1" id="Layer_1" xmlns="http://www.w3.org/2000/svg" xmlns:xlink="http://www.w3.org/1999/xlink" x="0px" y="0px"
	 viewBox="0 0 64.15 59" style="enable-background:new 0 0 64.15 59;" xml:space="preserve">
<style type="text/css">
	.st0{fill:#FFFFFF;}
</style>
<g id="Group_1183" transform="translate(254.576 -361.411)">
	<path id="Path_14121" class="st0" d="M-223.17,390.91c4.39-0.04,8.77-0.05,13.16-0.07c-0.01-1.54-0.02-3.08-0.02-4.61
		c0-2.04,0.01-4.08-0.01-6.12c0-0.35,0.19-0.85-0.55-0.76c-3.97,0.49-7.95,0.99-11.93,1.41c-0.94,0.1-1.42,0.35-1.28,1.34
		c0.02,2.68,0.03,5.36,0.04,8.04C-223.76,390.55-223.81,390.91-223.17,390.91z"/>
	<path id="Path_14122" class="st0" d="M-225.15,381.11c-3.25,0.38-6.51,0.77-9.76,1.15c-0.37,0.04-0.43,0.24-0.43,0.54
		c0.05,2.71-0.13,5.42,0.09,8.12c3.07-0.01,6.15-0.06,9.21,0.01c0.97,0.02,1.13-0.31,1.12-1.17c-0.04-2.84,0.01-5.67,0.02-8.51
		C-224.98,381.19-225.07,381.1-225.15,381.11z"/>
	<path id="Path_14123" class="st0" d="M-225.8,392.09c-2.81,0.03-5.62,0-8.44-0.01c-0.94-0.14-1.22,0.31-1.12,1.19
		c0.06,0.49,0,1,0.01,1.5c-0.06,1.93-0.02,3.87,0.12,5.8c3.15,0.36,6.31,0.68,9.46,1.09c0.71,0.09,0.85-0.08,0.84-0.73
		c-0.03-2.64-0.03-5.29,0-7.94C-224.9,392.29-225.09,392.08-225.8,392.09z"/>
	<path id="Path_14124" class="st0" d="M-210.81,392.09c-2.01,0.03-4.02,0.01-6.02,0.01c-2.04,0-4.08,0.02-6.13-0.01
		c-0.59-0.01-0.82,0.13-0.81,0.77c0.04,2.78,0.02,5.56,0.01,8.33c0,0.47,0.08,0.71,0.64,0.77c4.12,0.46,8.24,0.93,12.34,1.46
		c0.72,0.09,0.77-0.16,0.76-0.72c-0.01-3.28-0.02-6.56,0.01-9.84C-210.01,392.24-210.21,392.08-210.81,392.09z"/>
</g>
</svg>
