<?xml version="1.0" encoding="utf-8"?>
<!-- Generator: Adobe Illustrator 24.3.0, SVG Export Plug-In . SVG Version: 6.00 Build 0)  -->
<svg version="1.1" id="Layer_1" xmlns="http://www.w3.org/2000/svg" xmlns:xlink="http://www.w3.org/1999/xlink" x="0px" y="0px"
	 viewBox="0 0 57.61 39.65" style="enable-background:new 0 0 57.61 39.65;" xml:space="preserve">
<style type="text/css">
	.st0{fill:#FFFFFF;}
</style>
<path id="Path_14111" class="st0" d="M0.05,31.62c0.31-8.73,2.18-17.33,5.51-25.4C5.91,5.25,6.4,4.33,7.03,3.5
	c0.91-0.99,2.03-1.76,3.28-2.26c2.83-1.33,6.09-1.44,9-0.3c1.96,0.74,4.01,1.24,6.09,1.48c3.88,0.44,7.81,0.12,11.56-0.96
	c1.44-0.48,2.9-0.92,4.38-1.27c3.47-0.83,6.77,1.01,9.03,3.55c2.02,2.48,3.41,5.41,4.05,8.54c0.89,3.16,1.62,6.36,2.19,9.6
	c0.5,3.39,0.77,6.82,0.98,10.25c0.05,1.33-0.12,2.66-0.52,3.93c-0.93,3.19-3.8,4.48-6.75,2.96c-1.33-0.83-2.57-1.81-3.68-2.92
	c-2.53-2.17-5.08-5.43-8.42-6.29c-1.43-0.31-2.89-0.47-4.35-0.48c-3.92-0.3-7.86-0.3-11.78,0c-3.35,0.44-6.44,2.02-8.77,4.47
	c-1.15,1.17-2.3,2.33-3.46,3.48c-1.27,1.43-3.08,2.26-4.99,2.31c-1.39,0.03-2.7-0.66-3.46-1.83C0.31,35.92-0.17,33.76,0.05,31.62z
	 M1.61,31.91c0,0.27,0,0.53,0.01,0.79c0.07,2.4,1.14,5.88,4.18,5.19c1.23-0.37,2.33-1.07,3.18-2.03c1.58-1.52,3.09-3.11,4.76-4.53
	c1.64-1.61,3.69-2.72,5.92-3.23c2.27-0.38,4.56-0.61,6.85-0.67c3.02-0.05,6.04,0.14,9.06,0.29c2.17,0.09,4.28,0.76,6.1,1.94
	c2.42,1.68,4.65,3.61,6.65,5.77c0.78,0.83,1.67,1.53,2.65,2.1c1.34,0.92,3.18,0.57,4.1-0.77c0.24-0.35,0.4-0.74,0.47-1.16
	c0.37-1.33,0.52-2.72,0.45-4.1c-0.2-3.09-0.48-6.19-0.95-9.25c-0.5-3.26-1.26-6.46-2.29-9.59c-0.64-2.26-1.5-4.45-2.58-6.53
	c-1.1-1.87-2.84-3.28-4.9-3.96c-1.06-0.38-2.2-0.51-3.32-0.36c-1.5,0.25-2.97,0.65-4.39,1.18c-2.98,0.9-6.08,1.3-9.19,1.16
	c-3.41-0.07-6.79-0.67-10.02-1.77c-1.49-0.58-3.1-0.78-4.69-0.58c-2.05,0.34-3.92,1.34-5.36,2.84C7.84,5.26,7.45,5.97,7.16,6.71
	C5.46,10.67,4.15,14.79,3.25,19c-0.47,2.15-0.84,4.33-1.11,6.52C1.84,27.64,1.66,29.77,1.61,31.91z"/>
<path id="Path_14112" class="st0" d="M20.68,26.45c-1.53,0.01-2.08-0.47-2.12-1.98c-0.02-0.66-0.3-0.86-0.92-0.87
	c-1.49-0.02-1.93-0.58-1.92-2.35c-0.13-0.9,0.49-1.75,1.39-1.88c0.16-0.02,0.33-0.02,0.5,0c0.68,0,0.94-0.23,0.95-0.91
	c0.02-1.4,0.61-1.94,2.01-1.93c1.63,0.01,2.21,0.5,2.23,1.98c0.01,0.66,0.26,0.86,0.9,0.87c0.93-0.14,1.81,0.5,1.95,1.44
	c0.02,0.16,0.03,0.32,0,0.49c0.01,1.65-0.48,2.27-1.9,2.31c-0.58,0.02-0.93,0.14-0.95,0.83C22.76,25.95,22.21,26.44,20.68,26.45z
	 M16.83,21.45c-0.14,0.77,0.16,1.09,0.99,1.09c0.89-0.12,1.71,0.51,1.83,1.4c0.02,0.15,0.02,0.3,0,0.45c0,0.64,0.15,0.99,0.88,0.98
	c0.68-0.01,1.18-0.05,1.2-0.94c0.04-1.41,0.52-1.86,1.93-1.89c0.8-0.02,0.88-0.47,0.89-1.08s-0.12-0.99-0.86-1.01
	c-1.46-0.03-1.91-0.46-1.97-1.95c-0.03-0.86-0.52-0.88-1.16-0.89c-0.68-0.01-0.92,0.28-0.92,0.95c0,1.29-0.57,1.86-1.87,1.88
	C17.05,20.46,16.71,20.7,16.83,21.45L16.83,21.45z"/>
<path id="Path_14113" class="st0" d="M40.85,21.21c-0.03,2.35-1.89,4.27-4.23,4.38c-2.38-0.08-4.28-1.98-4.38-4.36
	c0.1-2.34,1.97-4.22,4.31-4.34C38.91,16.96,40.79,18.86,40.85,21.21z M36.6,24.39c1.67,0.07,3.08-1.23,3.15-2.9
	c0-0.08,0-0.15,0-0.23c0.08-1.67-1.21-3.09-2.88-3.17c-0.1-0.01-0.21,0-0.31,0c-1.67-0.07-3.08,1.23-3.15,2.9c0,0.08,0,0.15,0,0.23
	c-0.09,1.67,1.2,3.09,2.87,3.17C36.38,24.4,36.49,24.4,36.6,24.39L36.6,24.39z"/>
<path id="Path_14114" class="st0" d="M17.5,11.24c-0.03,2.36-1.96,4.25-4.32,4.22c-0.03,0-0.06,0-0.09,0
	c-2.35-0.09-4.2-2.04-4.18-4.39c0.11-2.35,2.05-4.2,4.4-4.19C15.66,6.95,17.52,8.89,17.5,11.24z M16.41,11.2
	c0.04-1.74-1.33-3.19-3.07-3.23c-0.04,0-0.09,0-0.13,0c-1.75,0-3.18,1.43-3.18,3.18c-0.03,1.75,1.36,3.19,3.11,3.22
	c0.03,0,0.07,0,0.1,0c1.73,0.02,3.15-1.37,3.17-3.1C16.41,11.25,16.41,11.23,16.41,11.2L16.41,11.2z"/>
<path id="Path_14115" class="st0" d="M42.07,7.16c-0.01-0.97,0.76-1.76,1.73-1.77c0.02,0,0.03,0,0.05,0
	c0.95,0.04,1.71,0.82,1.73,1.77c-0.01,0.99-0.81,1.78-1.8,1.77c0,0,0,0,0,0C42.81,8.9,42.06,8.11,42.07,7.16z"/>
<path id="Path_14116" class="st0" d="M42.06,14.63c0.01-0.95,0.77-1.73,1.72-1.75c0.99,0.02,1.78,0.81,1.8,1.8
	c-0.04,0.99-0.85,1.76-1.84,1.76C42.79,16.38,42.05,15.59,42.06,14.63z"/>
<path id="Path_14117" class="st0" d="M39.57,12.63c-0.92,0-1.66-0.74-1.66-1.65c0-0.04,0-0.09,0.01-0.13
	c0.01-0.93,0.77-1.67,1.7-1.66c0.06,0,0.12,0,0.18,0.01c0.92,0.07,1.64,0.82,1.66,1.75c-0.04,0.98-0.87,1.74-1.84,1.69
	C39.59,12.63,39.58,12.63,39.57,12.63z"/>
<path id="Path_14118" class="st0" d="M48.01,9.18c0.96,0,1.75,0.76,1.78,1.72c-0.02,0.98-0.83,1.76-1.81,1.74c-0.01,0-0.02,0-0.03,0
	c-0.94,0-1.7-0.77-1.7-1.71c0-0.02,0-0.03,0-0.05c0-0.93,0.75-1.69,1.68-1.69C47.96,9.18,47.98,9.18,48.01,9.18z"/>
</svg>
