<?xml version="1.0" encoding="utf-8"?>
<!-- Generator: Adobe Illustrator 24.3.0, SVG Export Plug-In . SVG Version: 6.00 Build 0)  -->
<svg version="1.1" id="Layer_1" xmlns="http://www.w3.org/2000/svg" xmlns:xlink="http://www.w3.org/1999/xlink" x="0px" y="0px"
	 viewBox="0 0 270.12 124.28" style="enable-background:new 0 0 270.12 124.28;" xml:space="preserve">
<style type="text/css">
	.st0{opacity:0.06;fill-rule:evenodd;clip-rule:evenodd;fill:url(#SVGID_1_);}
	.st1{fill-rule:evenodd;clip-rule:evenodd;fill:#CB2900;}
	.st2{fill-rule:evenodd;clip-rule:evenodd;fill:url(#SVGID_2_);}
	.st3{fill-rule:evenodd;clip-rule:evenodd;fill:url(#SVGID_3_);}
	.st4{fill-rule:evenodd;clip-rule:evenodd;fill:#631818;}
</style>
<radialGradient id="SVGID_1_" cx="-246.7464" cy="1512.089" r="40.2238" gradientTransform="matrix(3.3803 0 0 0.2738 969.139 -300.6716)" gradientUnits="userSpaceOnUse">
	<stop  offset="0.6706" style="stop-color:#CECECE"/>
	<stop  offset="1" style="stop-color:#FFFFFF"/>
</radialGradient>
<path class="st0" d="M135.06,102.4c37.3,0,69.12,1.07,95.44,3.2c26.41,2.14,39.62,4.72,39.62,7.74s-13.21,5.6-39.62,7.73
	c-26.33,2.14-58.14,3.21-95.44,3.21c-37.3,0-69.16-1.07-95.57-3.21C13.16,118.94,0,116.36,0,113.34s13.16-5.6,39.49-7.74
	C65.9,103.46,97.76,102.4,135.06,102.4z"/>
<g>
	<path class="st1" d="M136.11,112.43c0.32-0.41,0.51-0.83,0.58-1.26c0.41-2.86-0.92-5.29-4-7.29c-3.08-2-6.23-3.76-9.44-5.3
		c-3.17-1.52-6.93-2.67-11.27-3.48c-0.02,0.02-0.04,0.04-0.05,0.05c-1.3,1.36-2.38,2.82-3.25,4.39c-1.44,2.57-2.15,5.22-2.15,7.95
		c0,1.87,0.3,3.71,0.9,5.5c-1.27,0.13-2.55,0.25-3.82,0.37c-4.74,0.46-9.45,0.86-14.13,1.18c-4.86,0.41-9.72,0.74-14.6,1
		c-5.18,0.27-10.34,0.43-15.47,0.46c-3.63,0.03-7.26-0.13-10.9-0.49c-5.23-0.79-10.41-1.83-15.54-3.13
		c-0.5-0.15-0.98-0.34-1.44-0.56c-3.69-1.81-6.95-4.45-9.77-7.9c-3.76-4.6-4.93-9.94-3.51-16.01c1.3-5.64,3.5-10.78,6.59-15.42
		c3.08-4.67,6.45-9,10.11-12.98c3.54-3.88,7.26-7.57,11.16-11.06c4.19-3.76,8.54-7.29,13.06-10.59c3.88-2.89,7.85-5.62,11.9-8.18
		c4.69-3.01,9.47-5.76,14.36-8.26c3.81-1.93,7.66-3.77,11.54-5.51c3.9-1.74,7.84-3.39,11.83-4.92c4.02-1.52,8.07-2.9,12.16-4.13
		c4-1.16,8.04-2.19,12.11-3.08c3.95-0.85,7.95-1.61,12-2.26c3.93-0.56,7.89-1,11.88-1.31C160.84,0.08,164.75,0,168.67,0
		c5.35,0.02,10.64,0.79,15.85,2.31c0.36,0.1,0.73,0.21,1.09,0.32c4.45,1.31,8.83,2.8,13.15,4.48c4.21,1.64,8.34,3.5,12.38,5.58
		c0.55,0.28,1.1,0.57,1.65,0.86c4.21,2.21,8.33,4.73,12.36,7.57c4.43,3.13,7.93,7.18,10.52,12.16c0.51,1.01,0.83,2.11,0.95,3.31
		c0.48,5.06-1.06,9.16-4.62,12.29c-4.14,3.69-8.58,6.81-13.31,9.36c-1.22,0.65-2.42,1.37-3.58,2.14c-1.86,1.25-3.64,2.65-5.35,4.22
		c-1.35,1.25-2.33,2.79-2.95,4.62c-1.4,4.09-0.42,7.37,2.95,9.85c1.86,1.4,3.71,2.8,5.54,4.21c2.1,1.61,4.19,3.22,6.26,4.85
		c3.23,2.58,5.56,5.85,6.99,9.81c1.43,3.96,1.94,7.16,1.53,9.58c-0.42,2.42-1.14,4.08-2.17,4.99c-1.03,0.91-5.02,1.67-11.98,2.28
		c-0.85,0.07-2,0.13-3.44,0.17c-4.82,0.11-12.94-0.02-24.36-0.37C175.1,114.16,157.75,113.45,136.11,112.43z M123.16,34.86
		c-0.24,0.02-0.49,0.04-0.74,0.05c-4.91,0.33-7.65,0.65-8.23,0.97c-1.71,0.99-3.48,3.16-5.31,6.52c-0.83,1.76-1.47,3.1-1.92,4.03
		c2.5,1.62,6.06,5.4,10.67,11.36c2.27,2.89,3.99,4.92,5.16,6.08c1.81,1.74,3.37,2.62,4.67,2.62c2.44,0,3.67-3.18,3.67-9.54
		c0-2.22-0.64-5.03-1.92-8.41C127.72,44.68,125.71,40.13,123.16,34.86z"/>
	
		<linearGradient id="SVGID_2_" gradientUnits="userSpaceOnUse" x1="-801.3086" y1="736.0082" x2="-778.9349" y2="774.765" gradientTransform="matrix(0.6741 0 0 0.6741 654.7357 -456.3387)">
		<stop  offset="0" style="stop-color:#CB2900"/>
		<stop  offset="1" style="stop-color:#990000"/>
	</linearGradient>
	<path class="st2" d="M123.16,34.86c2.55,5.27,4.56,9.83,6.03,13.67c1.28,3.39,1.92,6.19,1.92,8.41c0,6.36-1.22,9.54-3.67,9.54
		c-1.3,0-2.86-0.87-4.67-2.62c-1.16-1.16-2.88-3.19-5.16-6.08c-4.62-5.96-8.17-9.75-10.67-11.36c0.45-0.92,1.09-2.27,1.92-4.03
		c1.83-3.35,3.6-5.52,5.31-6.52c0.58-0.32,3.33-0.65,8.23-0.97C122.67,34.9,122.92,34.88,123.16,34.86z"/>
	
		<linearGradient id="SVGID_3_" gradientUnits="userSpaceOnUse" x1="-807.1152" y1="831.7816" x2="-762.257" y2="831.7816" gradientTransform="matrix(0.6741 0 0 0.6741 654.7357 -456.3387)">
		<stop  offset="0" style="stop-color:#CB2900"/>
		<stop  offset="1" style="stop-color:#990000"/>
	</linearGradient>
	<path class="st3" d="M136.11,112.43c-0.98,1.58-8.71,1.58-23.2,0c-1.83,0.2-3.66,0.39-5.49,0.58c-0.6-1.8-0.9-3.63-0.9-5.5
		c0-2.74,0.72-5.39,2.15-7.95c0.86-1.57,1.95-3.03,3.25-4.39c0.02-0.02,0.03-0.03,0.05-0.05c4.34,0.8,8.1,1.96,11.27,3.48
		c3.21,1.53,6.36,3.3,9.44,5.3c3.08,2,4.41,4.43,4,7.29C136.62,111.6,136.42,112.02,136.11,112.43z"/>
</g>
<polygon class="st4" points="73.72,67.68 78.25,72.7 76.18,74.34 71.27,69.89 66.3,74.38 64.66,72.31 68.84,67.69 64.2,63.49 
	66.87,60.1 71.29,64.99 75.5,60.34 78.89,63 "/>
<polygon class="st4" points="78.24,108.28 82.27,111.72 80.43,112.85 76.06,109.79 71.63,112.88 70.17,111.46 73.9,108.29 
	69.77,105.4 72.15,103.07 76.08,106.43 79.83,103.23 82.84,105.06 "/>
<path class="st4" d="M90.76,59.2l0.87-1.47l10.43,7.21c0.14,0.09,0.24,0.21,0.28,0.37c0.05,0.17,0.05,0.35,0.02,0.51
	c-0.03,0.15-0.12,0.3-0.25,0.45l-8.37,7.99l8.93,7.73c0.1,0.08,0.18,0.2,0.22,0.36c0.03,0.14,0.02,0.29-0.03,0.44
	c-0.05,0.13-0.13,0.25-0.25,0.34l-7.81,6.5l6.66,4.96c0.11,0.07,0.19,0.19,0.24,0.34c0.05,0.13,0.05,0.26,0,0.4
	c-0.05,0.14-0.13,0.26-0.24,0.34l-4.8,3.63l4.86,3.76c0.11,0.08,0.18,0.21,0.22,0.36c0.01,0.06,0.01,0.12,0,0.18
	c0,0.06-0.02,0.12-0.04,0.19c-0.06,0.14-0.16,0.25-0.29,0.31l-5.6,3.34l-0.74-1.05l4.81-2.87l-4.8-3.71
	c-0.11-0.08-0.19-0.19-0.22-0.31c-0.05-0.14-0.04-0.27,0.01-0.4c0.04-0.14,0.12-0.25,0.24-0.33l4.73-3.6l-6.65-4.91
	c-0.11-0.11-0.2-0.23-0.25-0.36c-0.05-0.14-0.05-0.28-0.01-0.42c0.04-0.14,0.12-0.26,0.23-0.34l7.84-6.54l-8.92-7.68
	c-0.12-0.1-0.21-0.22-0.25-0.36c-0.05-0.15-0.06-0.29-0.01-0.44c0.04-0.16,0.12-0.29,0.22-0.37l8.27-7.96L90.76,59.2z"/>
</svg>
