<?xml version="1.0" encoding="utf-8"?>
<!-- Generator: Adobe Illustrator 25.2.1, SVG Export Plug-In . SVG Version: 6.00 Build 0)  -->
<svg version="1.1" id="Layer_1" xmlns="http://www.w3.org/2000/svg" xmlns:xlink="http://www.w3.org/1999/xlink" x="0px" y="0px"
	 viewBox="0 0 262.4 147.8" style="enable-background:new 0 0 262.4 147.8;" xml:space="preserve">
<style type="text/css">
	.st0{fill:#FFFFFF;}
</style>
<g id="Layer_1_1_">
	<g>
		<path class="st0" d="M191.6,110.4c-6,0-10.9-4.9-10.9-10.9s4.9-10.9,10.9-10.9s10.9,4.9,10.9,10.9S197.6,110.4,191.6,110.4
			 M70.8,110.4c-6,0-10.9-4.9-10.9-10.9s4.9-10.9,10.9-10.9s10.9,4.9,10.9,10.9S76.9,110.4,70.8,110.4 M195.5,44.6l21.8-37.8
			c1.3-2.2,0.5-5-1.7-6.2c-2.2-1.3-5-0.5-6.2,1.7l-22.1,38.3c-16.9-7.7-35.9-12-56.2-12c-20.3,0-39.3,4.3-56.2,12L52.8,2.3
			c-1.3-2.2-4-2.9-6.2-1.7c-2.2,1.3-2.9,4-1.7,6.2l22,37.8C29.4,65,3.8,103,0,147.8h262.4C258.7,102.9,233,64.9,195.5,44.6"/>
	</g>
</g>
<g id="Layer_2_1_">
</g>
</svg>
