<?xml version="1.0" encoding="utf-8"?>
<!-- Generator: Adobe Illustrator 25.2.1, SVG Export Plug-In . SVG Version: 6.00 Build 0)  -->
<svg version="1.1" id="Layer_1" xmlns="http://www.w3.org/2000/svg" xmlns:xlink="http://www.w3.org/1999/xlink" x="0px" y="0px"
	 viewBox="0 0 197.4 197.4" style="enable-background:new 0 0 197.4 197.4;" xml:space="preserve">
<style type="text/css">
	.st0{fill:#FFFFFF;}
</style>
<g>
	<path class="st0" d="M197.3,53.8c-0.1-29.6-24.1-53.7-53.7-53.7C113.7,0,83.7,0,53.8,0.1C24.2,0.2,0.1,24.2,0,53.8
		c-0.1,14.8,0,29.6,0,44.4c0,15.1-0.1,30.3,0,45.4c0.1,29.6,24.1,53.7,53.8,53.7c30,0.1,59.9,0.1,89.9,0
		c29.6-0.1,53.7-24.1,53.7-53.8C197.3,113.7,197.3,83.8,197.3,53.8z M188.7,143.2c-0.3,26.3-19.8,45.4-46.1,45.6
		c-29.3,0.2-58.6,0.2-87.9,0C28,188.6,8.7,169,8.5,142.2c-0.1-14.7,0-29.3,0-47C8.9,82,7.3,65.6,9.1,49.4C11.9,25.2,29.9,9,54.2,8.7
		c29.6-0.3,59.3-0.3,88.9,0c25,0.3,45.3,20.4,45.6,45.5C189,83.8,189,113.5,188.7,143.2z"/>
	<path class="st0" d="M92.1,71c-11.5-2.7-22.1,0.9-28.2,9.8c-4,5.8-5.1,12.5-5.1,20.6c0,0.8,0.1,2.8,0.3,4.7
		c1.6,14.2,11.2,23.1,25.4,23.7c13.3,0.5,23.4-7.4,26.3-20.9c1.2-5.6,1.2-11.2,0.3-16.8C109.3,81.2,102.3,73.4,92.1,71z M89.5,121.2
		c-9.9,2.1-17.7-2.5-20.6-12.4c-1.9-6.7-1.9-13.5,0.8-20c2.9-7,8.6-10.6,16-10.5c7.2,0.1,12.8,4.2,15.4,11.3c1.3,3.4,1.9,7,1.8,10.7
		C102.8,111.3,97.5,119.5,89.5,121.2z"/>
	<path class="st0" d="M152.2,97.3c-5.2-1.6-10.6-2.6-15.7-4.5c-5.4-2-6.5-7.8-2.6-11.6c4.6-4.6,16.1-4.6,19.3,0.9
		c1.2,2.1,2.5,3.3,4,3.8c3.5,1.3,6.8-2.3,5.1-5.7c-1.1-2.3-2.9-4.3-5.1-5.9c-7.4-5.3-19.8-5.4-27.3-0.4c-5.5,3.8-7.4,9.1-6.8,15.6
		c0.6,6,4.2,9.6,9.5,11.6c2.6,1,5.4,1.5,8.1,2.3c3.8,1.1,7.8,1.5,11.3,3.6c4.5,2.7,5.4,7.1,2.3,10.9c-5.1,6.3-19.5,5.6-23.1-1.7
		c-2.4-5-7.6-4.8-9-2.6c-0.9,1.4,0.1,4.2,1,6.3c1.8,4,5.1,6.6,9.1,8c7.5,2.7,15,2.7,22.4-0.4c7.6-3.2,11.4-10.5,9.8-18.6
		C163.2,102,158.1,99.2,152.2,97.3z"/>
	<path class="st0" d="M42.5,103.9c-0.1-4.9-0.1-9.8,0.1-14.7c0.2-3.5-1.4-3.9-4.4-3.8c-3.1,0.1-4.1,1.1-4,4.4
		c0.1,4.6-0.5,7.9-0.3,11.9c0.3,5.9,0,11.7,0,17.7c0,2.2-0.5,5.6,0.4,7.7c0.7,1.7,2.4,1.2,3.9,1.2c2.2,0,4.7,0.8,4.4-3.2
		C42.2,118.1,42.6,111,42.5,103.9z"/>
	<path class="st0" d="M38.2,67.6C35,68,32.9,69.5,33,73c0.1,3.2,2.3,4.7,5.2,4.8c3.2,0.1,5.5-1.8,5.5-5.1
		C43.8,69.5,41.5,67.9,38.2,67.6z"/>
</g>
</svg>
