<?xml version="1.0" encoding="utf-8"?>
<!-- Generator: Adobe Illustrator 25.0.1, SVG Export Plug-In . SVG Version: 6.00 Build 0)  -->
<svg version="1.1" id="形状_1_1_" xmlns="http://www.w3.org/2000/svg" xmlns:xlink="http://www.w3.org/1999/xlink" x="0px"
	 y="0px" viewBox="0 0 512 512" style="enable-background:new 0 0 512 512;" xml:space="preserve">
<style type="text/css">
	.st0{fill:#FFFFFF;}
</style>
<g id="形状_1">
	<g>
		<path class="st0" d="M301.8,154.1c1.3,6.2,0.8,12.5,0.9,18.8c0.1,34.7-0.1,69.3,0.1,104c10.4,4.9,21.7,8.6,33.3,8.4
			c7.7,0.2,15.4-1.6,22.1-5.2c7-3.8,12.8-9.6,17-16.4c4.7-7.7,7.6-16.4,9.2-25.2c1.9-10.2,1.9-20.6,1.6-30.9
			c-0.7-15.8-3.1-31.8-9.9-46.2c-3.8-7.9-8.9-15.2-15.2-21.4c-5.8-5.9-12.6-10.8-19.7-15.1c-15.8-9.4-33.1-15.7-50.5-21.2
			c-11.1-3.6-22.3-6.9-33.4-10.2C237.7,88.1,218,82.8,198,79c0,110.4,0,220.8,0,331.2c25,7.9,49.9,15.9,74.9,23.8
			c0.1-92.8,0-185.6,0-278.4c0.2-5.3,1-10.9,4.4-15.1c2-2.6,5.5-4,8.8-3.4c3.3,0.7,6.5,2,9,4.2C298.9,144.5,300.9,149.3,301.8,154.1
			z M106.2,350.4c25.7-9.2,51.4-18.5,77.1-27.6c0.2-1.7,0.1-3.5,0.1-5.2c0-12.8,0-25.6,0-38.4c-32.6,11.5-65.1,23.1-97.6,34.6
			c-7.9,2.9-16,5.5-23.8,8.8c-9,3.8-17.9,8-26,13.6c-3.5,2.4-6.7,5.4-8.5,9.3c-1.9,3.9-2,8.5-0.5,12.5c1.8,4.7,5.3,8.6,9.3,11.7
			c7.2,5.5,15.8,8.8,24.4,11.3c26.3,8.6,54,12.9,81.7,12.3c13.7-0.2,27.4-1.9,40.9-4.3c0.2-2.2,0.1-4.3,0.1-6.5
			c0-10.8,0-21.6,0-32.5c-11,3.9-22,7.9-33,11.9c-4.2,1.6-8.5,3.1-12.9,4c-6.6,1.4-13.3,1.9-20,2.1c-6-0.3-12.2-0.6-17.8-2.9
			c-2-0.9-4.2-2.1-5.1-4.2c-0.7-1.8,0.3-3.7,1.6-5C99,353.3,102.6,351.7,106.2,350.4z M478.6,325.5c-6.5-5.8-14.7-9.5-22.8-12.4
			c-4.6-1.4-9-3.3-13.6-4.6c-23.4-7.3-47.9-10.4-72.3-10.5c-7.4,0.3-14.9,0.5-22.2,1.3c-20.6,2.4-41,6.5-60.6,13.4c0,15,0,30,0,45
			c27-9.4,54-19,81.1-28.5c9-3,18.5-4.2,28-4.3c6,0.2,12.2,0.6,17.9,2.8c2,0.9,4.2,2,5.1,4.1c0.9,2.4-0.9,4.6-2.7,6
			c-4.4,3.5-9.9,4.9-15,6.8c-38,13.5-75.9,27.1-113.9,40.6c-0.8,0.1-0.5,1.1-0.6,1.7c0,14,0,27.9,0,41.9
			c49.9-17.9,99.8-35.8,149.7-53.8c8.2-3,16.6-5.6,24.4-9.6c7.3-3.7,14.6-8,20.1-14.1c2.9-3.3,4.9-7.6,4.7-12.1
			C485.9,333.9,482.5,329.1,478.6,325.5z"/>
	</g>
</g>
</svg>
