<?xml version="1.0" encoding="utf-8"?>
<!-- Generator: Adobe Illustrator 25.2.1, SVG Export Plug-In . SVG Version: 6.00 Build 0)  -->
<svg version="1.1" id="Layer_1" xmlns="http://www.w3.org/2000/svg" xmlns:xlink="http://www.w3.org/1999/xlink" x="0px" y="0px"
	 viewBox="0 0 800 230" style="enable-background:new 0 0 800 230;" xml:space="preserve">
<style type="text/css">
	.st0{fill:#FFFFFF;}
</style>
<g>
	<g>
		<path class="st0" d="M184.9,49.3c0-16.8-9.4-30.5-33.1-30.5H61.4v14h83.6c12.9-1,16.6,9.1,16.6,16.5c0,9.7-3.2,16.3-16.6,16.9
			H90.3c-16.9,0-28.9,12.8-28.9,31.9v33.9h23.4V96.7c0-9.7,5.5-15.3,12.9-15.3h54.1C175.6,81.3,184.9,68.3,184.9,49.3z M251.1,49.4
			c0-7.6,2.3-17.2,14.1-16.7h43.5v-14h-50.2c-23.4,0-31.4,14.2-31.4,30.6V101c0,9.4-5.4,16.7-14.4,16.7h-44.1v14h50.6
			c23.5,0,32-11.8,32-30.6V49.4z M443,18.6c0,0-41.2,77.3-43.5,81.6c-2.8,5.3-8,4.2-10.3-0.4l-43.8-81.3h-26.3
			c0,0,52.8,99.7,54.6,102.7c1.8,3.1,5.7,10.2,15.1,10.7c9.4,0.5,15.3-9.9,17.3-13.3c2-3.3,53.2-100.2,53.2-100.2H443z M674.8,18.4
			c-9.4-0.5-15.3,10-17.3,13.3c-2,3.3-53.3,100.4-53.3,100.4h16.5l12.5-23.9l72.4,0.2l12.9,23.7h26.3c0,0-52.9-99.9-54.7-102.9
			C688.2,26.1,684.2,18.9,674.8,18.4z M640.9,94.1c0,0,22.1-41.6,23.3-43.8c2.8-5.4,8-4.2,10.3,0.4L698,94.3L640.9,94.1z
			 M626.7,32.2l0.1-13.9c0,0-63.1,0.1-73.1,0.1h-39.9v13.7h32.6l12.1,0.1l0,14.4v84.4h23.5V48.2l-0.3-16.1L626.7,32.2z M474.5,131.7
			h23.9V19h-23.9V131.7z M262.5,184.5h-12.2v27.6h4.8v-10.6h7.3c7.9,0,9.4-5.1,9.4-8.5C271.8,189.6,270.3,184.5,262.5,184.5z
			 M262.2,197.6h-7.1v-9.1h7.1c2.5,0,4.8,0.9,4.8,4.6C267,196.5,264.3,197.6,262.2,197.6z M275.7,212.1h4.4v-27.6h-4.4V212.1z
			 M301.8,207.6v-10.3c0-4.2-4.1-5.8-8-5.8c-4.4,0-8.8,1.5-9.1,6.6h4.4c0.2-2.2,1.9-3.2,4.4-3.2c1.8,0,4.1,0.4,4.1,2.7
			c0,2.6-2.8,2.2-6,2.8c-3.7,0.4-7.7,1.2-7.7,6.2c0,3.9,3.2,5.8,6.8,5.8c2.4,0,5.2-0.7,6.9-2.4c0.3,1.8,1.6,2.4,3.4,2.4
			c0.7,0,2.1-0.3,2.8-0.5v-3c-0.5,0.1-0.8,0.1-1.1,0.1C302.1,209.1,301.8,208.7,301.8,207.6z M297.4,205.4c0,2.8-3,3.8-4.9,3.8
			c-1.5,0-4.1-0.6-4.1-2.5c0-2.3,1.7-3,3.6-3.3c1.9-0.3,4.1-0.3,5.4-1.2V205.4z M314.7,207L314.7,207l-5.3-14.9h-4.8l7.6,19.9
			l-0.5,1.5c-0.5,1.7-1,2.8-3.1,2.8c-0.7,0-1.4-0.2-2.1-0.3v3.7c1,0.2,2,0.2,3.1,0.2c4.6,0,5.6-3.2,7.1-6.8l7.8-21h-4.6L314.7,207z
			 M343.1,197.1c-1.4-0.4-7.5-2-8-2.1c-2-0.5-3.3-1.6-3.3-3.6c0-2.8,2.8-3.6,5.1-3.6c3.3,0,5.7,1.3,5.9,4.9h4.8
			c0-5.8-4.8-8.8-10.6-8.8c-5,0-10.1,2.6-10.1,8.1c0,2.9,1.4,5.7,6.1,7c3.8,1,6.3,1.5,8.2,2.3c1.1,0.4,2.3,1.3,2.3,3.4
			c0,2.1-1.6,4.2-5.8,4.2c-3.9,0-7-1.7-7-5.9H326c0.1,6.8,5.2,9.8,11.5,9.8c5.5,0,11-2.5,11-8.7
			C348.5,201.2,346.7,198.1,343.1,197.1z M358,186.1h-4.4v6h-3.3v3.3h3.3v11.8c0.1,3.3,0.9,5.1,5.5,5.1c1,0,1.9-0.2,2.9-0.2v-3.4
			c-0.6,0.2-1.2,0.2-1.9,0.2c-2,0-2.1-0.9-2.1-2.7v-10.7h4v-3.3h-4V186.1z M382,207.6v-10.3c0-4.2-4.1-5.8-8-5.8
			c-4.4,0-8.8,1.5-9.1,6.6h4.4c0.2-2.2,1.9-3.2,4.4-3.2c1.8,0,4.1,0.4,4.1,2.7c0,2.6-2.8,2.2-6,2.8c-3.7,0.4-7.7,1.2-7.7,6.2
			c0,3.9,3.2,5.8,6.8,5.8c2.4,0,5.2-0.7,6.9-2.4c0.3,1.8,1.6,2.4,3.4,2.4c0.7,0,2.1-0.3,2.8-0.5v-3c-0.5,0.1-0.8,0.1-1.1,0.1
			C382.3,209.1,382,208.7,382,207.6z M377.6,205.4c0,2.8-3,3.8-4.9,3.8c-1.5,0-4.1-0.6-4.1-2.5c0-2.3,1.7-3,3.6-3.3
			c1.9-0.3,4.1-0.3,5.4-1.2V205.4z M392.7,186.1h-4.4v6H385v3.3h3.3v11.8c0.1,3.3,0.9,5.1,5.5,5.1c1,0,1.9-0.2,2.9-0.2v-3.4
			c-0.6,0.2-1.2,0.2-1.9,0.2c-2,0-2.1-0.9-2.1-2.7v-10.7h4v-3.3h-4V186.1z M400.1,212.1h4.4v-20h-4.4V212.1z M400.1,188.7h4.4v-4.2
			h-4.4V188.7z M418.7,191.6c-6.4,0-10.1,4.4-10.1,10.5c0,6.1,3.7,10.5,10.1,10.5c6.4,0,10.1-4.4,10.1-10.5
			C428.8,196,425.1,191.6,418.7,191.6z M418.7,209.1c-3.9,0-5.7-3.6-5.7-7.1c0-3.4,1.7-7,5.7-7c3.9,0,5.7,3.6,5.7,7
			C424.4,205.6,422.6,209.1,418.7,209.1z M443.1,191.6c-2.6,0-4.9,1.4-6.2,3.6l-0.1-0.1v-2.9h-4.2v20h4.4v-11.8
			c0-2.9,1.9-5.3,4.8-5.3c2.6,0,3.8,1.4,3.9,4.5v12.6h4.4v-13.7C450.2,193.9,447.4,191.6,443.1,191.6z M462.3,204.6
			c0-1.4-0.9-2-2.6-2h-2.7v7h1.2v-3h1.1l1.8,3h1.3l-2-3.1C461.5,206.4,462.3,205.9,462.3,204.6z M458.2,205.7v-2.1h1.4
			c0.7,0,1.5,0.1,1.5,1c0,1-0.8,1.1-1.6,1.1H458.2z M459.5,199.7c-3.4,0-6.2,2.5-6.2,6.3c0,3.6,2.6,6.4,6.2,6.4
			c3.3,0,6.2-2.5,6.2-6.4C465.7,202.2,462.8,199.7,459.5,199.7z M459.5,211.3c-3,0-4.9-2.4-4.9-5.2c0-3.1,2.1-5.2,4.9-5.2
			c2.7,0,4.9,2.2,4.9,5.2C464.3,209.1,462.2,211.3,459.5,211.3z M477.7,206.3L477.7,206.3l-7-21.8h-5l9.2,27.6h5.4l9.4-27.6h-4.9
			L477.7,206.3z M492.1,212.1h4.4v-20h-4.4V212.1z M492.1,188.7h4.4v-4.2h-4.4V188.7z M507.2,186.1h-4.4v6h-3.3v3.3h3.3v11.8
			c0.1,3.3,0.9,5.1,5.5,5.1c1,0,1.9-0.2,2.9-0.2v-3.4c-0.6,0.2-1.2,0.2-1.9,0.2c-2,0-2.1-0.9-2.1-2.7v-10.7h4v-3.3h-4V186.1z
			 M531.2,207.6v-10.3c0-4.2-4.1-5.8-8-5.8c-4.4,0-8.8,1.5-9.1,6.6h4.4c0.2-2.2,1.9-3.2,4.4-3.2c1.8,0,4.1,0.4,4.1,2.7
			c0,2.6-2.8,2.2-6,2.8c-3.7,0.4-7.7,1.2-7.7,6.2c0,3.9,3.2,5.8,6.8,5.8c2.4,0,5.2-0.7,6.9-2.4c0.3,1.8,1.6,2.4,3.4,2.4
			c0.7,0,2.1-0.3,2.8-0.5v-3c-0.5,0.1-0.8,0.1-1.1,0.1C531.5,209.1,531.2,208.7,531.2,207.6z M526.8,205.4c0,2.8-3,3.8-4.9,3.8
			c-1.5,0-4.1-0.6-4.1-2.5c0-2.3,1.7-3,3.6-3.3c1.9-0.3,4.1-0.3,5.4-1.2V205.4z M750.7,124.3h2.4v6.6h1.5v-6.6h2.4v-1.2h-6.3V124.3z
			 M765.1,123.1l-2.1,5.6l-2.2-5.6h-2.2v7.9h1.4v-6.2h0l2.3,6.2h1.1l2.4-6.2h0v6.2h1.4v-7.9H765.1z"/>
	</g>
</g>
</svg>
