<?xml version="1.0" encoding="utf-8"?>
<!-- Generator: Adobe Illustrator 25.2.1, SVG Export Plug-In . SVG Version: 6.00 Build 0)  -->
<svg version="1.1"
	 id="svg2" xmlns:cc="http://creativecommons.org/ns#" xmlns:dc="http://purl.org/dc/elements/1.1/" xmlns:inkscape="http://www.inkscape.org/namespaces/inkscape" xmlns:rdf="http://www.w3.org/1999/02/22-rdf-syntax-ns#" xmlns:sodipodi="http://sodipodi.sourceforge.net/DTD/sodipodi-0.dtd" xmlns:svg="http://www.w3.org/2000/svg"
	 xmlns="http://www.w3.org/2000/svg" xmlns:xlink="http://www.w3.org/1999/xlink" x="0px" y="0px" viewBox="0 0 100 101"
	 style="enable-background:new 0 0 100 101;" xml:space="preserve">
<style type="text/css">
	.st0{fill:#FFFFFF;}
</style>
<sodipodi:namedview  bordercolor="#666666" borderopacity="1.0" gridtolerance="1" guidetolerance="1" id="base" inkscape:current-layer="svg2" inkscape:cx="69.793098" inkscape:cy="58.956819" inkscape:pageopacity="0" inkscape:pageshadow="2" inkscape:showpageshadow="false" inkscape:window-height="705" inkscape:window-maximized="1" inkscape:window-width="1366" inkscape:window-x="-8" inkscape:window-y="-8" inkscape:zoom="1" objecttolerance="1" pagecolor="#ffffff" showgrid="false" showguides="false" units="px">
	</sodipodi:namedview>
<g id="_x23_ffffffff" transform="translate(0,-1060.2)">
</g>
<g id="_x23_2acbffff-4" transform="matrix(0.74035173,0,0,0.75447038,-840.95699,-746.35387)">
</g>
<g id="g26" transform="matrix(0.44444299,0,0,0.44444299,-0.25427334,-0.06421408)">
	<g id="g6">
		<path id="path2" inkscape:connector-curvature="0" class="st0" d="M113.3,1.3c-10.1,0-18.5,2.8-26.1,7.4C87,8.7,87,8.8,87,9
			s0.1,0.1,0.3,0.1c9.8-2.1,24.5,6.2,25.9,7.1h0.1h0.1c1.4-0.9,16.1-9.2,25.9-7.1c0.1,0,0.2,0,0.2-0.1c0-0.1,0-0.2-0.1-0.2
			C131.8,4.1,123.4,1.3,113.3,1.3z M146.8,15.4c-2.5,0.1-8.2,2.1-19.8,13.4l-0.1,0.1c0,0,0,0.1,0.1,0.1c10.1,12,29.6,40.6,25.9,52.5
			v0.2c0.1,0,0.2,0,0.2-0.1c6.4-8.4,10.3-19,10.3-30.4c0-13.9-5.6-26.5-14.9-35.6c-0.1-0.1-0.1-0.1-0.3-0.1
			C148.1,15.5,147.6,15.4,146.8,15.4z M79.7,15.5c-0.8,0-1.3,0.1-1.5,0.2c-0.1,0-0.1,0.1-0.2,0.1C68.8,25,63.2,37.6,63.2,51.5
			c0,11.4,3.9,22,10.3,30.4c0,0.1,0.1,0.1,0.2,0.1s0.1-0.1,0-0.2c-3.9-11.9,15.7-40.5,25.9-52.5l0.1-0.1c0-0.1,0-0.1-0.1-0.1
			C88,17.5,82.2,15.6,79.7,15.5z M113.3,41.6c0,0-0.1,0-0.1,0.1c-15,11.4-40.7,39.6-32.9,47.6c8.8,7.7,20.4,12.4,33,12.4
			s24.1-4.6,33-12.4c7.8-8-17.9-36.2-32.9-47.6C113.4,41.6,113.3,41.6,113.3,41.6z M143.5,116c-4.4,0-8.5,0.7-12,2.1
			c-3.6,1.5-6.8,3.6-9.4,6.5c-2.7,2.9-4.8,6.4-6.1,10.1c-1.4,3.8-2,8.1-2,12.7c0,4.6,0.6,9,2,12.7c1.4,3.8,3.4,7.1,6.1,10
			c2.8,2.9,5.9,5,9.4,6.5c3.5,1.4,7.6,2.1,12,2.1c4.5,0,8.5-0.6,12-2.1c3.5-1.4,6.6-3.6,9.4-6.5c2.6-2.9,4.6-6.2,6-10
			c1.4-3.8,2-8.1,2-12.7c0-4.8-0.7-9-2-12.7c-1.2-3.8-3.4-7.3-6-10.1c-2.6-2.9-5.9-5.1-9.4-6.5C151.9,116.7,147.9,116,143.5,116z
			 M3.7,117.3l20.9,28.9L1.8,177.6H12l17.8-24.4l17.6,24.4h10.2l-22.7-31.4l21-28.9H45.7l-15.9,21.9l-15.9-21.9H3.7z M62.5,117.3
			V143h-7.9l-5.6,7.7h13.5v26.9h28.1c6.5,0,11.5-1.6,15-4.6c3.5-3,5.3-7.2,5.3-12.5c0-3.2-0.9-6.3-2.8-8.6c-1.8-2.4-4.2-4.4-7.6-5.6
			c5.2-2.9,7.9-7.4,7.9-13.1c0-4.6-1.6-8.5-4.9-11.4c-3.2-2.9-7.9-4.4-14-4.4H62.5z M170.7,117.3l21,28.9l-22.8,31.4h10.3l17.6-24.4
			l17.7,24.4h10.3l-22.9-31.4l21-28.9h-10.3l-15.9,21.9l-15.9-21.9H170.7z M143.5,124.2c6,0,10.9,2.1,14.5,6.2
			c3.6,4.1,5.4,9.9,5.4,17s-1.8,12.8-5.4,16.9s-8.5,6.2-14.5,6.2c-6.1,0-10.9-2.1-14.5-6.2c-3.6-4.1-5.5-9.8-5.5-16.9
			c0-7.1,1.9-12.7,5.5-17C132.7,126.3,137.5,124.2,143.5,124.2z M71.7,125.2h17.2c3.4,0,6,0.8,7.8,2.3c1.9,1.5,2.7,3.6,2.7,6.2
			c0,3.1-0.9,5.5-2.6,7c-1.8,1.6-4.4,2.4-7.9,2.4H71.7V125.2z M71.7,150.7h18.6c3.8,0,6.6,0.8,8.5,2.4c1.9,1.5,2.9,4,2.9,7.1
			c0,3-1,5.4-3,7c-2,1.5-4.9,2.4-8.5,2.4H71.7V150.7z M27.4,201.1c-2.6,0-4.7,0.6-6.2,1.8c-1.5,1.1-2.3,2.7-2.3,4.7
			c0,2,0.6,3.5,1.9,4.6c1.2,1.1,3.1,2,5.6,2.5l2,0.5c2,0.5,3.5,1,4.2,1.5c0.8,0.6,1.1,1.4,1.1,2.4c0,1.2-0.5,2.2-1.4,3
			c-1,0.6-2.4,1-4.1,1c-2.1,0-3.7-0.5-4.9-1.4c-1.1-0.9-1.6-2.3-1.6-4h-3.5c0,2.8,0.9,4.9,2.8,6.4c1.8,1.5,4.3,2.1,7.4,2.1
			c2.9,0,5.3-0.6,6.9-1.9c1.6-1.2,2.5-3.1,2.5-5.2c0-1.9-0.6-3.4-1.9-4.5c-1.2-1.1-3.3-2-6-2.5l-2.1-0.5c-2-0.4-3.4-1-4.1-1.5
			c-0.8-0.5-1.1-1.4-1.1-2.5c0-1.1,0.4-1.9,1.2-2.5c0.9-0.6,2-0.9,3.6-0.9c2,0,3.5,0.4,4.4,1.1c0.9,0.8,1.4,1.9,1.5,3.4H37
			c0-2.4-0.9-4.2-2.5-5.6C32.9,201.7,30.5,201.1,27.4,201.1z M156.9,201.1c-2.6,0-4.8,0.6-6.2,1.8c-1.5,1.1-2.2,2.7-2.2,4.7
			c0,2,0.6,3.5,1.9,4.6c1.2,1.1,3.1,2,5.6,2.5l2,0.5c2,0.5,3.5,1,4.3,1.5c0.8,0.6,1.1,1.4,1.1,2.4c0,1.2-0.5,2.2-1.4,3
			c-1,0.6-2.4,1-4.1,1c-2.1,0-3.8-0.5-4.9-1.4c-1.1-0.9-1.6-2.3-1.6-4h-3.6c0,2.8,0.9,4.9,2.8,6.4c1.8,1.5,4.3,2.1,7.4,2.1
			c2.9,0,5.2-0.6,6.9-1.9s2.5-3.1,2.5-5.2c0.3-1.9-0.4-3.4-1.6-4.5c-1.2-1.1-3.3-2-6-2.5l-2.1-0.5c-2-0.4-3.4-1-4.1-1.5
			c-0.7-0.5-1.1-1.4-1.1-2.5c0-1.1,0.4-1.9,1.2-2.5s2-0.9,3.6-0.9c2,0,3.5,0.4,4.4,1.1c0.9,0.8,1.4,1.9,1.5,3.4h3.6
			c0-2.4-0.9-4.2-2.5-5.6C162.4,201.7,160,201.1,156.9,201.1z M47.7,201.7v24.1h17.1v-3.4H51.3v-7.4h12V212h-12v-7h13.5v-3.2H47.7z
			 M75.3,201.7v24.1h3.6V216h7c1.4,0,2.4,0.4,3,1s1,1.7,1,3.2l0.1,2.6c0,1.4,0.2,2.4,0.7,3.1h3.8c-0.4-0.9-0.6-1.9-0.7-3.1l-0.2-3.8
			c0-1.4-0.4-2.4-0.9-3.3c-0.5-0.8-1.4-1.4-2.5-1.6c1.2-0.4,2.3-1.1,2.9-2.1c0.7-1,1.1-2.2,1.1-3.8c0-2.1-0.8-3.7-2.3-4.9
			c-1.5-1.1-3.5-1.8-6.1-1.8H75.3z M105,201.7v24.1h3.6v-24.1H105z M120.8,201.7v24.1H138v-3.4h-13.6v-7.4h12V212h-12v-7H138v-3.2
			H120.8z M186.4,201.7l8.4,11.5l-9.1,12.6h4.1l7-9.7l7.1,9.7h4.1l-9.1-12.6l8.4-11.5h-4.1l-6.4,8.8l-6.2-8.8H186.4z M79.2,204.8
			h6.5c1.5,0,2.8,0.4,3.5,1c0.7,0.6,1.2,1.6,1.2,2.9s-0.4,2.4-1.1,3c-0.8,0.8-1.9,1.1-3.2,1.1h-6.9V204.8z"/>
	</g>
	<g id="g20">
	</g>
	<g id="g24">
	</g>
</g>
</svg>
