<?xml version="1.0" encoding="utf-8"?>
<!-- Generator: Adobe Illustrator 25.0.1, SVG Export Plug-In . SVG Version: 6.00 Build 0)  -->
<svg version="1.1" id="Layer_1" xmlns="http://www.w3.org/2000/svg" xmlns:xlink="http://www.w3.org/1999/xlink" x="0px" y="0px"
	 viewBox="0 0 512 512" style="enable-background:new 0 0 512 512;" xml:space="preserve">
<style type="text/css">
	.st0{fill:#FFFFFF;}
</style>
<g id="comp_x5F_387-xbox">
	<g>
		<path class="st0" d="M149.6,58.5c44.2-2.3,101.7,32,106,32.8c0.6,0.1,9.6-3.9,20-9c59.3-28.8,87.2-23.9,99.6-23.4
			C316,22.5,233.6,12.6,158.3,48.1C136.6,58.4,136.1,59.1,149.6,58.5z"/>
		<path class="st0" d="M193.5,152c-27.5-24.9-53.9-50-80.1-58.8c-14.1-4.7-15.1-4.5-26.6,7.5c-27.1,28.2-49.6,73.9-55.9,113.5
			c-5,31.7-5.7,40.6-3.9,56.1c5.2,46.8,16,79.2,37.6,112.1c8.8,13.5,11.2,16,8.6,9.2c-3.9-10.2-0.3-34.8,8.8-59.3
			C95.2,296.1,131.9,227.5,193.5,152z"/>
		<path class="st0" d="M482.4,210.8C466.8,136.7,419.8,90,413.2,90c-6.8,0-22.4,6-33.4,12.9c-21.6,13.4-38,29.1-59.6,49
			c39.3,49.4,94.8,129.3,114,187.6c6.3,19.2,9,38.1,6.9,48.5c-1.6,7.9-1.6,7.9,1.3,4.3c5.7-7.1,18.5-29,23.6-40.3
			c6.9-15,13.9-37.3,17.2-54.4C487.1,276.6,486.8,231.8,482.4,210.8z"/>
		<path class="st0" d="M257.5,212.1c-4.5-1-45.8,35.9-75.5,67.3c-52.2,55.5-82.7,104-82.7,131.8c0,13.8,5.8,20.8,31.7,37.6
			c30.8,20,66.7,32.7,102.1,36.2c29.7,2.9,65.6-0.8,93.1-9.5c33.3-10.5,78.5-37.8,85.9-51.8c9.5-18.5-9.4-59.7-50.4-110.1
			C335.6,281.8,266.2,214.1,257.5,212.1z"/>
	</g>
</g>
<g id="Layer_1_1_">
</g>
</svg>
